<?xml version="1.0" encoding="utf-8"?>
<!-- Generator: Adobe Illustrator 17.0.0, SVG Export Plug-In . SVG Version: 6.00 Build 0)  -->
<!DOCTYPE svg PUBLIC "-//W3C//DTD SVG 1.1//EN" "http://www.w3.org/Graphics/SVG/1.1/DTD/svg11.dtd">
<svg version="1.1" id="Layer_1" xmlns="http://www.w3.org/2000/svg" xmlns:xlink="http://www.w3.org/1999/xlink" x="0px" y="0px"
	 width="565px" height="165px" viewBox="0 0 565 165" enable-background="new 0 0 565 165" xml:space="preserve">
<path fill="#323031" d="M3.811,98.384c-1.227,1.924-1.533,3.79-1.501,5.254l0.322,17.846c0.316,13.016,24.875,16.54,44.133,16.54
	c16.42,0,43.621-2.69,43.362-16.561l-0.321-17.833v-0.024l-0.001-0.024c-0.038-1.454-0.428-3.282-1.704-5.166
	c0.804-1.261,1.464-2.754,1.498-5.261l-0.32-17.832l-0.001-0.024l-0.001-0.025c-0.042-1.597-0.508-3.645-2.105-5.722
	c0.985-1.452,1.886-3.018,1.878-5.824L88.69,43.643l-0.001-0.024l0-0.024C88.282,27.9,51.859,27.106,44.562,27.106
	c-15.084,0-33.613,2.476-40.38,9.422c-2.539,2.607-3.029,5.307-2.989,7.124l0.364,20.094c0.12,2.388,0.911,4.241,2.107,5.773
	c-1.545,2.117-1.917,4.205-1.881,5.811l0.322,17.846C2.237,96.3,3.113,97.147,3.811,98.384z"/>
<linearGradient id="SVGID_1_" gradientUnits="userSpaceOnUse" x1="14.659" y1="89.0598" x2="77.15" y2="89.0598">
	<stop  offset="0" style="stop-color:#323031"/>
	<stop  offset="0.2454" style="stop-color:#48484A"/>
	<stop  offset="0.9448" style="stop-color:#313031"/>
</linearGradient>
<path fill="url(#SVGID_1_)" d="M11.108,97.314v3.676c0.001-0.001,0.002-0.001,0.003-0.002c0,2.361,0,3.899,0,3.899
	c0,3.201,15.463,6.569,34.538,6.569c18.304,0,33.273-3.102,34.452-6.18v-7.91C74.503,100.673,61.192,103,45.646,103
	C30.022,103,16.658,100.648,11.108,97.314z M63.094,73.492l-0.944,0.158c-3.712,0.479-23.804,1.512-32.26,0.131
	c2.452-0.44,3.401-0.62,5.718-1.355c-5.072,0.667-9.905,0.368-16.4-1.263c-3.563-0.733-6.208-2.339-8.099-4.498v6.18
	c0.001,0,0.002-0.001,0.003-0.001c0,2.009,0,3.281,0,3.281c0,3.202,15.463,6.571,34.538,6.571c18.304,0,33.273-3.103,34.452-6.184
	V68.58C76.623,70.636,71.005,72.439,63.094,73.492z"/>
<path fill="#323031" d="M19.208,71.163c-4.128-0.85-7.024-2.871-8.941-5.569c1.203,2.341,3.006,5.036,7.694,6.506
	c12.989,4.078,19.311,2.762,19.311,2.762l-5.537,1.401c4.442,0.502,9.812,1.017,14.465,1.017c23.118,0,28.454-4.177,32.195-7.796
	c-3.505,1.676-8.571,3.114-15.3,4.009l-0.944,0.158c-3.712,0.479-23.804,1.512-32.26,0.131c2.452-0.44,3.401-0.62,5.718-1.355
	C30.535,73.092,25.703,72.793,19.208,71.163z"/>
<path fill="#323031" d="M45.646,103c-15.104,0-28.097-2.198-33.959-5.357c3.458,4.59,17.457,8.025,34.21,8.025
	c17.326,0,31.704-3.674,34.524-8.499C75.025,100.58,61.498,103,45.646,103z"/>
<path fill="#323031" d="M8.579,62.481c-0.004-0.011-0.01-0.021-0.014-0.033h-0.01C8.563,62.459,8.571,62.47,8.579,62.481z"/>
<linearGradient id="SVGID_2_" gradientUnits="userSpaceOnUse" x1="81.7011" y1="102.1176" x2="5.0122" y2="102.1176">
	<stop  offset="0" style="stop-color:#FFCE00"/>
	<stop  offset="0.4049" style="stop-color:#FFE16A"/>
	<stop  offset="0.9877" style="stop-color:#FFCE00"/>
</linearGradient>
<path fill="url(#SVGID_2_)" d="M82.939,104.203v0.212v17.857v0.21c0-0.033-0.004-0.068-0.005-0.105
	c-0.231,4.989-16.836,9.015-37.288,9.015c-20.45,0-37.052-4.026-37.283-9.015c-0.001,0.037-0.006,0.072-0.006,0.105v-0.21v-17.857
	v-0.212c0,0.032,0.004,0.064,0.004,0.091c0.051-0.957,0.714-1.881,1.885-2.747c0.263-0.193,0.554-0.379,0.864-0.558
	c0,2.361,0,3.899,0,3.899c0,3.201,15.463,6.569,34.538,6.569c19.073,0,34.536-3.368,34.536-6.569v-3.895
	c0.309,0.18,0.6,0.364,0.86,0.555c1.177,0.867,1.841,1.79,1.89,2.747C82.935,104.267,82.939,104.235,82.939,104.203z M82.934,76.181
	c-0.054-1.177-1.027-2.304-2.75-3.337v3.281c0,3.202-15.462,6.571-34.536,6.571c-19.075,0-34.538-3.369-34.538-6.571
	c0,0,0-1.272,0-3.281c-1.721,1.033-2.694,2.16-2.748,3.337c-0.001-0.031-0.006-0.068-0.006-0.103v0.208v17.595v0.209
	c0-0.031,0.004-0.062,0.004-0.095c0.051,0.96,0.714,1.885,1.885,2.752C15.166,100.379,29.15,103,45.646,103
	c16.498,0,30.484-2.621,35.399-6.253c1.177-0.867,1.841-1.791,1.89-2.752c0,0.033,0.004,0.064,0.004,0.095v-0.209V76.286v-0.208
	C82.939,76.112,82.935,76.15,82.934,76.181z"/>
<path fill="#F8EB60" d="M45.65,113.623c21.989-0.094,37.29-3.891,37.254-9.47c-0.105-0.907-0.741-1.786-1.859-2.607
	c-0.26-0.191-0.551-0.375-0.86-0.555v3.895c0,3.201-15.462,6.569-34.536,6.569c-19.075,0-34.538-3.368-34.538-6.569
	c0,0,0-1.538,0-3.899c-0.31,0.18-0.601,0.365-0.864,0.558c-1.113,0.821-1.747,1.695-1.853,2.606
	C8.357,110.376,23.805,113.657,45.65,113.623z"/>
<path fill="#F8EB60" d="M80.185,72.844v3.281c0,3.202-15.462,6.571-34.536,6.571c-19.075,0-34.538-3.369-34.538-6.571
	c0,0,0-1.272,0-3.281c-1.687,1.011-2.649,2.115-2.739,3.268c0.33,4.817,16.886,8.702,37.277,8.702
	c20.382,0,36.934-3.881,37.275-8.697C82.84,74.962,81.876,73.856,80.185,72.844z"/>
<linearGradient id="SVGID_3_" gradientUnits="userSpaceOnUse" x1="7.1858" y1="53.4815" x2="83.3566" y2="53.4815">
	<stop  offset="0" style="stop-color:#FFCE00"/>
	<stop  offset="0.4049" style="stop-color:#FFE16A"/>
	<stop  offset="0.9877" style="stop-color:#FFCE00"/>
</linearGradient>
<path fill="url(#SVGID_3_)" d="M56.833,51.05c-5.766,0.094-18.616,0.702-18.559-5.726c0-6.432,12.171-6.48,12.887-6.48
	c-1.269-0.064-4.31-1.077-2.819-2.105c1.423-0.98,8.072-1.846,15.46-1.715c0,0-18.544-3.361-32.627-1.001l1.652-1.537
	c-6.757,1.019-20.682,3.239-23.202,13.903c-0.137-0.286-0.639-1.785-0.607-2.337C5.389,54.584,6.361,68.538,19.205,71.182
	c6.495,1.63,11.328,1.931,16.4,1.263c-2.317,0.736-3.265,0.915-5.718,1.357c8.456,1.38,28.807,0.295,32.471-0.183l-0.001-0.001
	c9.046-1.204,15.826-3.494,19.106-5.916c1.223-0.901,1.893-1.865,1.893-2.866v-1.488c0,0,0-11.05,0-15.702
	c0-2.775,0.63-8.612-23.637-9.096C88.557,41.255,82.925,50.628,56.833,51.05z"/>
<defs>
	<filter id="Adobe_OpacityMaskFilter" filterUnits="userSpaceOnUse" x="7.188" y="32.467" width="76.171" height="42.006">
		<feFlood  style="flood-color:white;flood-opacity:1" result="back"/>
		<feBlend  in="SourceGraphic" in2="back" mode="normal"/>
	</filter>
</defs>
<mask maskUnits="userSpaceOnUse" x="7.188" y="32.467" width="76.171" height="42.006" id="SVGID_4_">
	<g filter="url(#Adobe_OpacityMaskFilter)">
		
			<radialGradient id="SVGID_5_" cx="264.1536" cy="42.84" r="55.608" gradientTransform="matrix(1.0877 0 0 1.0492 -265.6971 -4.003)" gradientUnits="userSpaceOnUse">
			<stop  offset="0" style="stop-color:#FFFFFF"/>
			<stop  offset="0.9877" style="stop-color:#000000"/>
		</radialGradient>
		<ellipse fill="url(#SVGID_5_)" cx="46.273" cy="50.989" rx="44.837" ry="35.384"/>
	</g>
</mask>
<path mask="url(#SVGID_4_)" fill="#FFC627" d="M56.835,51.031c-5.765,0.094-18.616,0.702-18.558-5.726
	c0-6.432,12.171-6.48,12.886-6.48c-1.269-0.064-4.31-1.077-2.819-2.105c1.423-0.979,8.072-1.846,15.46-1.716
	c0,0-18.544-3.36-32.628-0.999l1.652-1.539c-6.756,1.02-20.682,3.24-23.202,13.904c-0.136-0.287-0.639-1.785-0.607-2.337
	C5.392,54.566,6.363,68.519,19.208,71.163c6.495,1.63,11.328,1.93,16.4,1.263c-2.317,0.735-3.266,0.915-5.718,1.355
	c8.457,1.381,28.548,0.348,32.26-0.131l0.944-0.158c9.045-1.203,15.092-3.387,18.371-5.811c1.223-0.901,1.893-1.865,1.893-2.867
	v-1.488c0,0,0-11.049,0-15.701c0-2.775,0.63-8.612-23.637-9.094C88.56,41.235,82.927,50.61,56.835,51.031z"/>
<defs>
	<filter id="Adobe_OpacityMaskFilter_1_" filterUnits="userSpaceOnUse" x="29.972" y="62.448" width="28.111" height="12.045">
		<feFlood  style="flood-color:white;flood-opacity:1" result="back"/>
		<feBlend  in="SourceGraphic" in2="back" mode="normal"/>
	</filter>
</defs>
<mask maskUnits="userSpaceOnUse" x="29.972" y="62.448" width="28.111" height="12.045" id="SVGID_6_">
	<g filter="url(#Adobe_OpacityMaskFilter_1_)">
		<linearGradient id="SVGID_7_" gradientUnits="userSpaceOnUse" x1="37.4246" y1="68.0275" x2="61.693" y2="68.0275">
			<stop  offset="0" style="stop-color:#FFFFFE"/>
			<stop  offset="0.5951" style="stop-color:#2C292A"/>
		</linearGradient>
		<rect x="37.425" y="61.118" fill="url(#SVGID_7_)" width="24.268" height="13.819"/>
	</g>
</mask>
<path opacity="0.79" mask="url(#SVGID_6_)" fill="#F8EB60" d="M29.972,73.814c10.356-1.863,25.968-9.851,26.697-11.366l1.414,11.121
	C54.639,74.743,36.372,74.769,29.972,73.814z"/>
<defs>
	<filter id="Adobe_OpacityMaskFilter_2_" filterUnits="userSpaceOnUse" x="9.626" y="40.811" width="15.206" height="13.017">
		<feFlood  style="flood-color:white;flood-opacity:1" result="back"/>
		<feBlend  in="SourceGraphic" in2="back" mode="normal"/>
	</filter>
</defs>
<mask maskUnits="userSpaceOnUse" x="9.626" y="40.811" width="15.206" height="13.017" id="SVGID_8_">
	<g filter="url(#Adobe_OpacityMaskFilter_2_)">
		<linearGradient id="SVGID_9_" gradientUnits="userSpaceOnUse" x1="10.9472" y1="45.7341" x2="23.3654" y2="54.5096">
			<stop  offset="0" style="stop-color:#FFFFFF"/>
			<stop  offset="0.0017" style="stop-color:#FEFEFE"/>
			<stop  offset="0.2089" style="stop-color:#BDBBBC"/>
			<stop  offset="0.4056" style="stop-color:#868484"/>
			<stop  offset="0.5863" style="stop-color:#5B5859"/>
			<stop  offset="0.7477" style="stop-color:#3C393A"/>
			<stop  offset="0.884" style="stop-color:#2A2627"/>
			<stop  offset="0.9787" style="stop-color:#231F20"/>
		</linearGradient>
		<path fill="url(#SVGID_9_)" d="M11.449,42.199c-0.879,1.135-1.42,2.813-1.824,4.19c0.495,5.831,10.475,7.256,15.206,7.439
			C12.327,51.627,11.201,44.944,11.449,42.199z"/>
	</g>
</mask>
<path opacity="0.37" mask="url(#SVGID_8_)" fill="#FFCE00" d="M12.473,40.811c-1.915,2.125-2.443,4.201-2.847,5.579
	c0.495,5.831,10.475,7.256,15.206,7.439C12.327,51.627,8.906,46.711,12.473,40.811z"/>
<defs>
	<filter id="Adobe_OpacityMaskFilter_3_" filterUnits="userSpaceOnUse" x="7.192" y="44.053" width="10.768" height="12.41">
		<feFlood  style="flood-color:white;flood-opacity:1" result="back"/>
		<feBlend  in="SourceGraphic" in2="back" mode="normal"/>
	</filter>
</defs>
<mask maskUnits="userSpaceOnUse" x="7.192" y="44.053" width="10.768" height="12.41" id="SVGID_10_">
	<g filter="url(#Adobe_OpacityMaskFilter_3_)">
		<linearGradient id="SVGID_11_" gradientUnits="userSpaceOnUse" x1="9.7875" y1="46.4281" x2="12.5098" y2="54.4007">
			<stop  offset="0" style="stop-color:#FFFFFF"/>
			<stop  offset="0.0529" style="stop-color:#F2F2F2"/>
			<stop  offset="0.5246" style="stop-color:#848282"/>
			<stop  offset="0.8496" style="stop-color:#3E3B3C"/>
			<stop  offset="1" style="stop-color:#231F20"/>
		</linearGradient>
		<path fill="url(#SVGID_11_)" d="M9.019,44.053c0,0,0.578,7.463,8.942,8.853L7.253,56.463C7.253,56.463,6.685,50.794,9.019,44.053z
			"/>
	</g>
</mask>
<path opacity="0.75" mask="url(#SVGID_10_)" fill="#F8EB60" d="M9.019,44.053c0,0,0.578,7.463,8.942,8.853L7.253,56.463
	C7.253,56.463,6.685,50.794,9.019,44.053z"/>
<defs>
	<filter id="Adobe_OpacityMaskFilter_4_" filterUnits="userSpaceOnUse" x="26.297" y="34.809" width="56.793" height="19.644">
		<feFlood  style="flood-color:white;flood-opacity:1" result="back"/>
		<feBlend  in="SourceGraphic" in2="back" mode="normal"/>
	</filter>
</defs>
<mask maskUnits="userSpaceOnUse" x="26.297" y="34.809" width="56.793" height="19.644" id="SVGID_12_">
	<g filter="url(#Adobe_OpacityMaskFilter_4_)">
		
			<radialGradient id="SVGID_13_" cx="390.9894" cy="133.0777" r="23.9632" gradientTransform="matrix(1.2355 0 0 0.4899 -441.3934 -20.7158)" gradientUnits="userSpaceOnUse">
			<stop  offset="0" style="stop-color:#FFFFFF"/>
			<stop  offset="0.6564" style="stop-color:#FFFFFF"/>
			<stop  offset="1" style="stop-color:#231F20"/>
		</radialGradient>
		<path fill="url(#SVGID_13_)" d="M85.115,45.175c0,6.293-12.858,11.388-28.719,11.388s-28.719-5.095-28.719-11.388
			c0-6.286,12.858-11.384,28.719-11.384S85.115,38.889,85.115,45.175z"/>
	</g>
</mask>
<linearGradient id="SVGID_14_" gradientUnits="userSpaceOnUse" x1="43.3297" y1="57.4839" x2="56.5927" y2="42.8948">
	<stop  offset="0.0429" style="stop-color:#F8EB60"/>
	<stop  offset="0.9448" style="stop-color:#FFC627"/>
</linearGradient>
<path opacity="0.68" mask="url(#SVGID_12_)" fill="url(#SVGID_14_)" d="M59.718,38.549c28.839,2.706,23.206,12.079-2.885,12.501
	c-5.766,0.094-18.616,0.702-18.559-5.726c0-6.432,12.171-6.48,12.887-6.48c-1.269-0.064-4.31-1.077-2.819-2.105
	c1.423-0.98,8.072-1.846,15.46-1.715c0,0-0.153-0.028-0.429-0.074c-2.198-0.164-4.543-0.191-7.014-0.053
	c-15.917,0.022-30.844,3.691-30.03,10.951c-0.071,6.415,12.948,9.521,28.747,8.367c15.673-0.612,28.217-3.822,28.012-9.053
	c0,0,0-0.001,0-0.002C82.153,42.318,78.005,38.913,59.718,38.549z"/>
<path fill="#323031" d="M123.442,39.61h61.095v16.048h-43.444v17.077h38.285v16.049h-38.285v34h-17.651V39.61z"/>
<path fill="#323031" d="M191.073,39.449h18.34v15.475h-18.34V39.449z M191.53,61.684h17.422v61.099H191.53V61.684z"/>
<path fill="#323031" d="M215.997,61.345h17.422v12.379c3.555-8.482,9.287-13.983,19.603-13.524v18.224h-0.917
	c-11.576,0-18.686,6.993-18.686,21.664v22.695h-17.422V61.345z"/>
<path fill="#323031" d="M254.768,92.409v-0.231c0-17.537,12.493-31.978,30.374-31.978c20.518,0,29.918,15.932,29.918,33.354
	c0,1.377-0.115,2.981-0.23,4.584h-42.756c1.72,7.911,7.221,12.035,15.017,12.035c5.846,0,10.088-1.832,14.899-6.303l9.974,8.825
	c-5.731,7.107-13.983,11.463-25.102,11.463C268.407,124.16,254.768,111.208,254.768,92.409z M298.097,87.251
	c-1.033-7.795-5.62-13.066-12.955-13.066c-7.221,0-11.919,5.156-13.298,13.066H298.097z"/>
<path fill="#323031" d="M337.725,114.76v8.024h-17.422V39.109h17.422v31.063c4.24-5.731,10.087-9.971,19.143-9.971
	c14.328,0,27.969,11.231,27.969,31.75v0.228c0,20.518-13.413,31.752-27.969,31.752C347.581,123.93,341.851,119.688,337.725,114.76z
	 M367.411,92.179V91.95c0-10.202-6.876-16.964-15.013-16.964c-8.14,0-14.903,6.762-14.903,16.964v0.228
	c0,10.203,6.763,16.966,14.903,16.966C360.535,109.145,367.411,102.495,367.411,92.179z"/>
<path fill="#323031" d="M387.932,105.131v-0.227c0-13.412,10.2-19.601,24.757-19.601c6.191,0,10.662,1.03,15.018,2.52v-1.031
	c0-7.22-4.47-11.233-13.182-11.233c-6.647,0-11.35,1.259-16.964,3.325l-4.357-13.297c6.764-2.981,13.411-4.93,23.842-4.93
	c9.513,0,16.391,2.523,20.748,6.878c4.585,4.584,6.648,11.348,6.648,19.6v35.648h-16.85v-6.647
	c-4.241,4.699-10.086,7.794-18.57,7.794C397.445,123.93,387.932,117.282,387.932,105.131z M427.937,101.121v-3.095
	c-2.981-1.377-6.879-2.292-11.119-2.292c-7.451,0-12.036,2.98-12.036,8.482v0.23c0,4.699,3.898,7.45,9.512,7.45
	C422.434,111.895,427.937,107.425,427.937,101.121z"/>
<path fill="#323031" d="M450.211,114.646l7.451-11.463c6.649,4.815,13.639,7.336,19.373,7.336c5.042,0,7.335-1.833,7.335-4.584
	v-0.228c0-3.783-5.96-5.045-12.724-7.108c-8.596-2.521-18.34-6.534-18.34-18.455v-0.23c0-12.493,10.086-19.485,22.466-19.485
	c7.795,0,16.276,2.636,22.925,7.107l-6.649,12.036c-6.075-3.555-12.148-5.732-16.618-5.732c-4.241,0-6.419,1.833-6.419,4.242v0.227
	c0,3.44,5.845,5.043,12.494,7.336c8.596,2.867,18.566,6.993,18.566,18.226v0.23c0,13.64-10.2,19.829-23.497,19.829
	C467.978,123.93,458.349,121.066,450.211,114.646z"/>
<path fill="#323031" d="M503.517,92.409v-0.231c0-17.537,12.493-31.978,30.376-31.978c20.518,0,29.916,15.932,29.916,33.354
	c0,1.377-0.115,2.981-0.231,4.584h-42.751c1.717,7.911,7.22,12.035,15.013,12.035c5.846,0,10.086-1.832,14.903-6.303l9.971,8.825
	c-5.731,7.107-13.985,11.463-25.104,11.463C517.158,124.16,503.517,111.208,503.517,92.409z M546.846,87.251
	c-1.031-7.795-5.616-13.066-12.952-13.066c-7.221,0-11.921,5.156-13.297,13.066H546.846z"/>
</svg>
