<?xml version="1.0" encoding="utf-8"?>
<!-- Generator: Adobe Illustrator 16.0.0, SVG Export Plug-In . SVG Version: 6.00 Build 0)  -->
<!DOCTYPE svg PUBLIC "-//W3C//DTD SVG 1.1//EN" "http://www.w3.org/Graphics/SVG/1.1/DTD/svg11.dtd">
<svg version="1.1" id="Layer_1" xmlns="http://www.w3.org/2000/svg" xmlns:xlink="http://www.w3.org/1999/xlink" x="0px" y="0px"
	 width="565px" height="165px" viewBox="0 0 565 165" enable-background="new 0 0 565 165" xml:space="preserve">
<g>
	<path fill="#C4AD2E" d="M83.437,156.18l-52.046-30.964V64.49l52.046-30.963l52.047,30.963v60.726L83.437,156.18z M36.881,122.093
		l46.556,27.698l46.556-27.698v-54.48L83.437,39.915L36.881,67.612V122.093z"/>
	<path fill="#C32333" d="M55.519,156.18L3.473,125.216V64.49l52.046-30.963l52.047,30.963v60.726L55.519,156.18z M8.963,122.093
		l46.556,27.698l46.557-27.698v-54.48L55.519,39.915L8.963,67.612V122.093z"/>
	<path fill="#3A6467" d="M69.245,131.474L17.198,100.51V39.784L69.245,8.82l52.047,30.963v60.726L69.245,131.474z M22.689,97.387
		l46.556,27.698l46.557-27.698V42.906L69.245,15.208L22.689,42.906V97.387z"/>
	<g>
		<path d="M173.803,57.468h28.229v6.794h-20.445v11.983h19.272v6.548h-19.272V101.2h-7.783V57.468z"/>
		<path d="M248.668,85.14c0,2.636-0.454,5.014-1.359,7.135c-0.906,2.122-2.141,3.922-3.706,5.404
			c-1.565,1.482-3.419,2.626-5.56,3.429c-2.141,0.803-4.468,1.204-6.979,1.204c-2.512,0-4.839-0.401-6.98-1.204
			c-2.141-0.803-4.005-1.946-5.59-3.429c-1.585-1.482-2.821-3.282-3.706-5.404c-0.886-2.121-1.328-4.499-1.328-7.135V57.468h7.783
			v27.363c0,1.277,0.164,2.544,0.494,3.799c0.329,1.257,0.875,2.378,1.637,3.367c0.762,0.987,1.77,1.79,3.027,2.408
			c1.256,0.618,2.811,0.927,4.664,0.927c1.854,0,3.407-0.309,4.664-0.927c1.256-0.618,2.265-1.421,3.026-2.408
			c0.762-0.989,1.307-2.11,1.638-3.367c0.329-1.255,0.494-2.521,0.494-3.799V57.468h7.783V85.14z"/>
		<path d="M262.564,57.468h7.783v36.814h18.592v6.918h-26.375V57.468z"/>
		<path d="M298.759,57.468h7.785v36.814h18.592v6.918h-26.377V57.468z"/>
		<path d="M375.849,66.609c-0.825-1.07-1.986-1.966-3.49-2.686c-1.504-0.721-3.016-1.082-4.541-1.082
			c-0.906,0-1.812,0.114-2.716,0.341c-0.906,0.227-1.729,0.576-2.472,1.049c-0.74,0.473-1.349,1.091-1.823,1.853
			c-0.472,0.763-0.71,1.68-0.71,2.749c0,0.988,0.206,1.833,0.619,2.532c0.41,0.701,0.976,1.297,1.696,1.792
			c0.722,0.495,1.596,0.926,2.628,1.298c1.026,0.37,2.16,0.741,3.396,1.111c1.399,0.453,2.85,0.968,4.354,1.544
			c1.504,0.578,2.882,1.339,4.139,2.285c1.255,0.948,2.287,2.142,3.089,3.583c0.804,1.442,1.203,3.233,1.203,5.374
			c0,2.347-0.432,4.396-1.294,6.146c-0.866,1.751-2.02,3.202-3.461,4.354c-1.442,1.153-3.129,2.018-5.064,2.594
			c-1.936,0.577-3.976,0.865-6.115,0.865c-2.842,0-5.621-0.524-8.34-1.575c-2.719-1.05-4.94-2.604-6.67-4.663l5.558-5.189
			c1.072,1.483,2.504,2.657,4.295,3.521c1.79,0.865,3.552,1.298,5.281,1.298c0.905,0,1.83-0.114,2.779-0.341
			c0.946-0.225,1.802-0.606,2.563-1.142c0.761-0.535,1.378-1.205,1.853-2.008c0.474-0.803,0.71-1.801,0.71-2.996
			c0-1.152-0.269-2.109-0.802-2.872c-0.536-0.762-1.257-1.42-2.163-1.978c-0.906-0.555-1.976-1.039-3.212-1.45
			c-1.235-0.412-2.533-0.843-3.893-1.298c-1.316-0.411-2.635-0.905-3.951-1.482c-1.319-0.576-2.501-1.337-3.553-2.285
			c-1.051-0.946-1.905-2.11-2.562-3.491c-0.659-1.378-0.989-3.098-0.989-5.156c0-2.224,0.464-4.139,1.389-5.745
			c0.928-1.606,2.142-2.934,3.646-3.984c1.501-1.051,3.211-1.832,5.125-2.348c1.917-0.514,3.86-0.772,5.839-0.772
			c2.223,0,4.478,0.393,6.764,1.174c2.284,0.783,4.271,1.957,5.96,3.521L375.849,66.609z"/>
		<path d="M401.482,64.262h-13.403v-6.794h34.59v6.794h-13.403V101.2h-7.783V64.262z"/>
		<path d="M442.373,57.468h6.734l18.838,43.732h-8.895l-4.075-10.008h-18.964l-3.954,10.008h-8.71L442.373,57.468z M452.258,84.522
			l-6.734-17.79l-6.854,17.79H452.258z"/>
		<path d="M507.356,67.722c-1.155-1.566-2.656-2.708-4.512-3.429c-1.853-0.72-3.665-1.08-5.435-1.08
			c-2.265,0-4.323,0.412-6.176,1.234c-1.853,0.824-3.45,1.957-4.788,3.398c-1.338,1.442-2.367,3.13-3.089,5.065
			c-0.721,1.936-1.08,4.036-1.08,6.3c0,2.389,0.349,4.571,1.048,6.548c0.7,1.976,1.7,3.675,2.997,5.095
			c1.298,1.421,2.851,2.522,4.665,3.306c1.81,0.782,3.85,1.173,6.115,1.173c2.346,0,4.426-0.463,6.238-1.391
			c1.812-0.926,3.273-2.151,4.386-3.674l6.238,4.385c-1.936,2.43-4.303,4.314-7.104,5.652s-6.074,2.007-9.819,2.007
			c-3.421,0-6.561-0.565-9.421-1.698c-2.863-1.132-5.324-2.718-7.383-4.756c-2.059-2.039-3.665-4.468-4.817-7.289
			c-1.153-2.82-1.729-5.939-1.729-9.358c0-3.5,0.608-6.66,1.823-9.482c1.215-2.82,2.882-5.22,5.002-7.195
			c2.121-1.977,4.622-3.5,7.507-4.571c2.882-1.071,6.011-1.607,9.388-1.607c1.399,0,2.861,0.135,4.387,0.402
			c1.522,0.268,2.983,0.68,4.386,1.236c1.399,0.555,2.718,1.245,3.951,2.068c1.236,0.824,2.287,1.813,3.15,2.965L507.356,67.722z"/>
		<path d="M523.414,57.468h7.785v18.901h0.186l18.283-18.901h10.501l-20.447,20.199l21.806,23.534h-10.932l-19.211-21.928h-0.186
			V101.2h-7.785V57.468z"/>
	</g>
</g>
</svg>
