<?xml version="1.0" encoding="utf-8"?>
<!-- Generator: Adobe Illustrator 16.0.0, SVG Export Plug-In . SVG Version: 6.00 Build 0)  -->
<!DOCTYPE svg PUBLIC "-//W3C//DTD SVG 1.1//EN" "http://www.w3.org/Graphics/SVG/1.1/DTD/svg11.dtd" [
	<!ENTITY st0 "fill:#0F0D0E;">
]>
<svg version="1.1" id="Layer_1" xmlns="http://www.w3.org/2000/svg" xmlns:xlink="http://www.w3.org/1999/xlink" x="0px" y="0px"
	 width="565px" height="165px" viewBox="0 0 565 165" style="enable-background:new 0 0 565 165;" xml:space="preserve">
<g>
	<path style="&st0;" d="M110.28,71.59H63.2c-1.21,0-2.2,0.99-2.2,2.2v23.02c0,1.21,0.99,2.2,2.2,2.2h18.37v28.6
		c0,0-4.12,1.41-15.52,1.41c-13.45,0-32.24-4.92-32.24-46.23c0-41.33,19.56-46.76,37.93-46.76c15.9,0,22.75,2.8,27.11,4.15
		c1.37,0.42,2.64-0.94,2.64-2.16l5.25-22.24c0-0.57-0.19-1.25-0.84-1.72c-1.77-1.26-12.57-7.31-39.85-7.31
		C34.62,6.75,2.38,20.12,2.38,84.4c0,64.28,36.91,73.86,68.01,73.86c25.75,0,41.38-11,41.38-11c0.64-0.36,0.71-1.26,0.71-1.67V73.79
		C112.48,72.58,111.5,71.59,110.28,71.59z"/>
	<path style="&st0;" d="M352.91,14.45c0-1.22-0.97-2.21-2.19-2.21h-26.51c-1.21,0-2.2,0.99-2.2,2.21c0,0.01,0.01,51.23,0.01,51.23
		h-41.32V14.45c0-1.22-0.98-2.21-2.19-2.21h-26.51c-1.21,0-2.19,0.99-2.19,2.21v138.71c0,1.22,0.98,2.22,2.19,2.22h26.51
		c1.21,0,2.19-1,2.19-2.22V93.83h41.32c0,0-0.07,59.33-0.07,59.33c0,1.22,0.98,2.22,2.2,2.22h26.57c1.21,0,2.19-1,2.19-2.22V14.45z"
		/>
	<g>
		<g>
			<path style="&st0;" d="M160.31,32.65c0-9.54-7.65-17.26-17.09-17.26c-9.43,0-17.09,7.71-17.09,17.26
				c0,9.54,7.66,17.27,17.09,17.27C152.65,49.92,160.31,42.18,160.31,32.65z"/>
			<path style="&st0;" d="M158.41,123.9c0-3.55,0-64.03,0-64.03c0-1.22-0.98-2.21-2.19-2.21h-26.42c-1.21,0-2.3,1.25-2.3,2.47
				c0,0,0,77.05,0,91.74c0,2.7,1.68,3.5,3.85,3.5c0,0,11.28,0,23.81,0c2.61,0,3.25-1.28,3.25-3.54
				C158.41,146.9,158.41,127.64,158.41,123.9z"/>
		</g>
	</g>
	<path style="&st0;" d="M453.65,57.87h-26.31c-1.21,0-2.19,0.99-2.19,2.22v68.01c0,0-6.68,4.89-16.17,4.89c-9.48,0-12-4.3-12-13.59
		c0-9.3,0-59.31,0-59.31c0-1.22-0.98-2.22-2.19-2.22h-26.7c-1.21,0-2.19,0.99-2.19,2.22c0,0,0,36.22,0,63.8
		c0,27.59,15.37,34.33,36.52,34.33c17.35,0,31.34-9.58,31.34-9.58s0.67,5.05,0.97,5.65c0.3,0.6,1.09,1.2,1.94,1.2l16.98-0.08
		c1.21,0,2.19-1,2.19-2.21l-0.01-93.11C455.84,58.86,454.86,57.87,453.65,57.87z"/>
	<path style="&st0;" d="M525.54,54.75c-14.94,0-25.1,6.67-25.1,6.67V14.45c0-1.22-0.98-2.21-2.19-2.21h-26.58
		c-1.21,0-2.19,0.99-2.19,2.21v138.71c0,1.22,0.98,2.22,2.19,2.22c0,0,18.44,0,18.44,0c0.83,0,1.46-0.43,1.92-1.18
		c0.46-0.75,1.12-6.4,1.12-6.4s10.87,10.3,31.45,10.3c24.16,0,38.01-12.25,38.01-55.01C562.62,60.34,540.5,54.75,525.54,54.75z
		 M515.17,132.9c-9.12-0.28-15.31-4.42-15.31-4.42V84.56c0,0,6.11-3.74,13.6-4.41c9.47-0.85,18.6,2.01,18.6,24.61
		C532.05,128.59,527.93,133.29,515.17,132.9z"/>
	<path style="&st0;" d="M234.59,57.65h-19.88c0,0-0.03-26.26-0.03-26.27c0-0.99-0.51-1.49-1.66-1.49h-27.1
		c-1.05,0-1.62,0.46-1.62,1.48v27.15c0,0-13.58,3.28-14.5,3.54c-0.91,0.27-1.59,1.11-1.59,2.11v17.06c0,1.23,0.98,2.22,2.19,2.22
		h13.89c0,0,0,17.84,0,41.04c0,30.48,21.38,33.48,35.81,33.48c6.59,0,14.48-2.12,15.78-2.6c0.79-0.29,1.25-1.1,1.25-1.99l0.02-18.77
		c0-1.22-1.03-2.21-2.2-2.21c-1.16,0-4.12,0.47-7.18,0.47c-9.77,0-13.08-4.54-13.08-10.42c0-5.87,0-39,0-39h19.89
		c1.21,0,2.19-0.99,2.19-2.22V59.86C236.79,58.63,235.81,57.65,234.59,57.65z"/>
</g>
</svg>
