<?xml version="1.0" encoding="utf-8"?>
<!-- Generator: Adobe Illustrator 16.0.0, SVG Export Plug-In . SVG Version: 6.00 Build 0)  -->
<!DOCTYPE svg PUBLIC "-//W3C//DTD SVG 1.1//EN" "http://www.w3.org/Graphics/SVG/1.1/DTD/svg11.dtd" [
	<!ENTITY st0 "fill:url(#SVGID_1_);">
]>
<svg version="1.1" id="Layer_1" xmlns="http://www.w3.org/2000/svg" xmlns:xlink="http://www.w3.org/1999/xlink" x="0px" y="0px"
	 width="565px" height="165px" viewBox="0 0 565 165" style="enable-background:new 0 0 565 165;" xml:space="preserve">
<g>
	<linearGradient id="SVGID_1_" gradientUnits="userSpaceOnUse" x1="282.4067" y1="-0.3662" x2="282.4067" y2="164.6343">
		<stop  offset="0.2" style="stop-color:#D1576C"/>
		<stop  offset="1" style="stop-color:#BF58A1"/>
	</linearGradient>
	<path style="&st0;" d="M211.88,112.36c-3.31-3.51-4.97-8.45-4.97-14.81c0-6.12,0.81-12.07,2.44-17.85
		c1.62-5.78,3.83-10.93,6.62-15.41c2.79-4.48,6.12-8.06,9.95-10.73c3.83-2.66,7.96-4,12.39-4c5.32,0,9.61,1.79,12.86,5.37
		c3.25,3.57,4.88,8.29,4.88,14.13c0,5.86-0.81,11.67-2.44,17.45c-1.62,5.8-3.83,11-6.62,15.61c-2.81,4.62-6.12,8.36-9.95,11.21
		c-3.85,2.87-7.91,4.29-12.19,4.29C219.51,117.63,215.19,115.87,211.88,112.36 M212.37,39.02c-6.5,3.65-12.1,8.46-16.77,14.44
		c-4.68,5.98-8.3,12.84-10.83,20.57c-2.53,7.75-3.8,15.7-3.8,23.89c0,5.2,0.78,9.97,2.34,14.34c1.56,4.34,3.8,8.12,6.73,11.31
		c2.93,3.18,6.44,5.66,10.52,7.41c4.11,1.76,8.69,2.63,13.76,2.63c6.5,0,12.41-1.56,17.75-4.67c5.33-3.12,9.95-7.15,13.84-12.09
		c0,11.18,6.9,16.77,20.67,16.77c2.99,0,5.76-0.26,8.29-0.78c2.55-0.52,5.11-1.1,7.71-1.75l3.9-14.44
		c-1.43,0.53-2.67,0.88-3.71,1.08c-1.04,0.18-2.21,0.29-3.51,0.29c-4.03,0-6.04-2.07-6.04-6.24c0-2.08,0.52-4.98,1.56-8.69
		c1.04-3.71,2.21-7.97,3.51-12.77l14.83-56.18c-1.95,0.65-4.3,1.14-7.03,1.46c-2.72,0.34-5.85,0.49-9.35,0.49h-9.75l-5.08,18.34
		c-1.68-6.64-4.93-11.76-9.75-15.41c-4.8-3.62-10.91-5.46-18.32-5.46C226.03,33.57,218.87,35.4,212.37,39.02 M437.54,115.77
		c-2.21-1.1-4.09-2.52-5.66-4.29c-1.55-1.75-2.73-3.81-3.5-6.14c-0.79-2.34-1.17-4.74-1.17-7.22c0-5.84,0.75-11.68,2.25-17.46
		c1.5-5.78,3.6-10.98,6.33-15.61c2.73-4.61,5.95-8.35,9.66-11.22c3.71-2.85,7.77-4.29,12.19-4.29c5.33,0,9.61,1.76,12.87,5.27
		c3.24,3.51,4.94,8.45,5.08,14.83c0,6.11-0.78,12.06-2.35,17.84c-1.56,5.8-3.74,10.9-6.53,15.32c-2.79,4.43-6.04,7.97-9.75,10.62
		c-3.71,2.67-7.64,4-11.8,4C442.29,117.42,439.76,116.87,437.54,115.77 M451.69,37.67c-4.88,2.72-9.2,6.3-12.97,10.73l3.89-14.25
		c-2.34,0.53-5.58,0.97-9.75,1.37c-4.15,0.38-8.64,0.58-13.46,0.58h-17.54l-3.91,14.64h11.13c1.17,0,1.92,0.43,2.24,1.27
		c0.32,0.85,0.17,2.38-0.49,4.58l-24.19,88.36c-0.66,2.21-1.33,3.6-2.04,4.2c-0.72,0.58-1.6,0.87-2.64,0.87h-8.58l-3.91,14.63h51.5
		l3.89-14.63h-9.95c-1.04,0-1.78-0.29-2.24-0.87c-0.46-0.59-0.36-1.99,0.3-4.2l8.58-32c1.7,6.26,5.01,11.26,9.95,15.02
		c4.94,3.77,11.31,5.65,19.12,5.65c7.92,0,15.05-1.76,21.35-5.26c6.3-3.52,11.67-8.19,16.09-14.04c4.41-5.86,7.8-12.57,10.14-20.19
		c2.34-7.62,3.51-15.56,3.51-23.89c0-5.21-0.75-10.04-2.25-14.53c-1.49-4.48-3.69-8.39-6.61-11.7c-2.92-3.31-6.5-5.89-10.73-7.71
		c-4.23-1.81-9.01-2.73-14.34-2.73C461.94,33.57,456.55,34.93,451.69,37.67 M353.92,38.05c-4.74,3.38-8.8,7.99-12.19,13.86
		l4.88-17.76c-2.34,0.53-5.6,0.97-9.75,1.37c-4.17,0.38-8.65,0.58-13.46,0.58h-18.14l-3.91,14.64h11.7c1.18,0,1.93,0.43,2.26,1.27
		c0.31,0.85,0.17,2.38-0.5,4.58l-20.47,74.51h26.13l8.39-31.21c2.19-8.32,4.41-15.67,6.61-22.03c2.22-6.38,4.59-11.7,7.12-15.99
		c2.54-4.3,5.33-7.55,8.38-9.76c3.07-2.2,6.55-3.32,10.44-3.32c1.44,0,2.79,0.26,4.11,0.78c1.3,0.52,2.27,1.24,2.91,2.15
		c-3.37,0.52-6.13,2.08-8.28,4.69c-2.14,2.59-3.16,5.39-3.03,8.38c0.12,3.38,1.37,6.18,3.71,8.39c2.33,2.21,5.58,3.31,9.74,3.31
		c2.86,0,5.5-0.69,7.91-2.05c2.4-1.35,4.48-3.19,6.24-5.46c1.76-2.27,3.08-4.89,4-7.9c0.9-2.99,1.3-6.17,1.16-9.55
		c-0.26-5.46-2.14-9.92-5.65-13.37c-3.51-3.43-8.32-5.16-14.43-5.16C363.96,32.98,358.66,34.68,353.92,38.05 M115.28,0.99
		c-4.23,0.39-8.74,0.59-13.57,0.59H84.75L80.67,16.2h10.15c1.29,0,2.07,0.43,2.33,1.28c0.26,0.84,0.06,2.37-0.58,4.58L63.1,131.08
		h25.95c3.63-14.44,7.23-26.75,10.82-36.96c3.57-10.21,7.18-18.55,10.82-25.07c3.65-6.5,7.36-11.23,11.12-14.24
		c3.77-2.99,7.67-4.49,11.7-4.49c2.99,0,5.52,0.89,7.6,2.64c2.09,1.76,3.13,4.32,3.13,7.71c0,1.55-0.4,3.8-1.18,6.73
		c-0.78,2.93-1.72,6.13-2.82,9.66c-1.11,3.51-2.32,7.2-3.61,11.11c-1.29,3.91-2.51,7.68-3.6,11.32c-1.12,3.63-2.05,6.98-2.83,10.04
		c-0.79,3.06-1.17,5.49-1.17,7.31c0,5.97,1.75,10.26,5.27,12.88c3.5,2.59,8.45,3.89,14.81,3.89c2.87,0,5.72-0.19,8.59-0.58
		c2.85-0.39,5.58-1.04,8.19-1.95l3.89-14.44c-2.59,0.92-5,1.37-7.22,1.37c-3.89,0-5.84-1.89-5.84-5.66c0-1.81,0.81-5.2,2.44-10.15
		c1.62-4.93,3.4-10.36,5.35-16.28c1.95-5.92,3.74-11.73,5.37-17.45c1.62-5.73,2.44-10.21,2.44-13.46c0-7.01-2.44-12.34-7.33-15.99
		c-4.87-3.62-10.82-5.46-17.84-5.46c-8.07,0-15.21,2.02-21.45,6.04c-6.25,4.05-11.84,9.89-16.78,17.57l15.99-57.54
		C122.71,0.15,119.51,0.61,115.28,0.99"/>
</g>
</svg>
