<?xml version="1.0" encoding="utf-8"?>
<!DOCTYPE svg PUBLIC "-//W3C//DTD SVG 1.1//EN" "http://www.w3.org/Graphics/SVG/1.1/DTD/svg11.dtd" [
	<!ENTITY st0 "fill:#26BBED;">
]>
<svg version="1.1" id="Layer_1" xmlns="http://www.w3.org/2000/svg" xmlns:xlink="http://www.w3.org/1999/xlink" x="0px" y="0px"
	 width="565px" height="165px" viewBox="0 0 565 165" style="enable-background:new 0 0 565 165;" xml:space="preserve">
<g id="layer1" transform="translate(-314.39464,-274.3971)">
	<path id="svg" style="&st0;" d="M679.88,360.55c0-13.12-3.39-25.45-9.34-36.16
		c25.36-57.39-27.17-48.98-30.09-48.41c-11.13,2.18-21.42,5.67-30.92,10.1c-1.4-0.08-2.81-0.12-4.23-0.12
		c-35.44,0-65.11,24.72-72.7,57.86c18.68-20.96,31.75-29.41,39.58-32.8c-1.25,1.12-2.47,2.25-3.68,3.38
		c-0.4,0.38-0.79,0.76-1.18,1.14c-0.79,0.76-1.58,1.53-2.36,2.3c-0.46,0.46-0.91,0.92-1.36,1.38c-0.69,0.7-1.37,1.4-2.04,2.1
		c-0.48,0.5-0.94,1-1.41,1.5c-0.63,0.67-1.25,1.34-1.86,2.01c-0.47,0.52-0.94,1.05-1.41,1.57c-0.58,0.65-1.15,1.3-1.72,1.95
		c-0.47,0.54-0.93,1.08-1.39,1.63c-0.54,0.63-1.06,1.26-1.59,1.9c-0.46,0.56-0.92,1.12-1.38,1.68c-0.49,0.6-0.97,1.21-1.45,1.81
		c-0.46,0.58-0.93,1.17-1.38,1.75c-0.43,0.56-0.85,1.11-1.27,1.66c-0.48,0.63-0.96,1.25-1.42,1.88c-0.33,0.45-0.65,0.89-0.97,1.33
		c-2.95,4.02-5.64,7.97-8.07,11.75c-0.01,0.01-0.01,0.02-0.02,0.03c-0.64,1-1.26,1.98-1.86,2.96c-0.03,0.05-0.07,0.1-0.1,0.16
		c-0.61,0.98-1.19,1.94-1.76,2.89c-0.02,0.03-0.04,0.07-0.06,0.1c-1.53,2.56-2.96,5.03-4.24,7.35
		c-6.72,12.17-9.99,20.68-10.13,21.18c-21.21,75.84,44.99,43.81,54.23,39.03c9.95,4.91,21.15,7.68,32.99,7.68
		c32.43,0,60.03-20.7,70.3-49.61H636.4c-5.8,9.8-16.96,16.43-29.79,16.43c-18.79,0-34.03-14.24-34.03-31.8h106.68
		C679.67,367.01,679.88,363.81,679.88,360.55L679.88,360.55z M665.95,287.16c6.42,4.34,11.57,11.14,2.73,34.07
		c-8.49-13.65-21.25-24.35-36.43-30.23C639.16,287.66,656.25,280.61,665.95,287.16z M529.45,427.31
		c-5.23-5.37-6.16-18.43,5.39-42.24c5.83,16.75,17.45,30.79,32.48,39.69C559.85,428.87,540.01,438.13,529.45,427.31z M572.42,349.76
		c0.6-17.07,15.45-30.74,33.71-30.74c18.25,0,33.11,13.67,33.71,30.74H572.42L572.42,349.76z"/>
</g>
</svg>
