<?xml version="1.0" encoding="utf-8"?>
<!-- Generator: Adobe Illustrator 16.0.0, SVG Export Plug-In . SVG Version: 6.00 Build 0)  -->
<!DOCTYPE svg PUBLIC "-//W3C//DTD SVG 1.1//EN" "http://www.w3.org/Graphics/SVG/1.1/DTD/svg11.dtd" [
	<!ENTITY st0 "fill:#57585D;">
]>
<svg version="1.1" id="Layer_1" xmlns="http://www.w3.org/2000/svg" xmlns:xlink="http://www.w3.org/1999/xlink" x="0px" y="0px"
	 width="565px" height="165px" viewBox="0 0 565 165" style="enable-background:new 0 0 565 165;" xml:space="preserve">
<g>
	<path style="&st0;" d="M24.11,51.13c1.71,2.63,2.46,4.98,3.41,9.94c6.67-6.51,14.9-9.94,23.88-9.94c8.11,0,14.76,2.63,19.91,8.01
		c1.39,1.35,2.73,3.08,3.88,4.79c8.96-9.18,16.99-12.8,27.74-12.8c7.66,0,14.91,2.29,19.35,6.1c5.53,4.78,7.29,10.53,7.29,23.92
		v69.65h-24.88V86.14c0-11.72-1.39-13.99-8.06-13.99c-4.78,0-11.5,3.26-17.02,8.23v70.41H55.33V87.06c0-12.22-1.77-15.09-8.9-15.09
		c-4.73,0-11.29,2.45-16.8,7.45v71.38H4.58V82.48c0-14.14-0.97-20.26-3.66-25.06L24.11,51.13z"/>
	<path style="&st0;" d="M221.15,65.66c7.82,9.18,11.32,19.89,11.32,35.76c0,16.83-3.86,28.34-12.31,37.88
		c-7.42,8.41-17.2,13.59-32.29,13.59c-26.63,0-44.01-19.9-44.01-50.69c0-30.82,17.55-51.3,44.01-51.3
		C201.84,50.92,212.74,55.72,221.15,65.66z M175.06,79.81c-1.76,5.18-2.69,12.06-2.69,21.83c0,11.26,1.15,19.72,3.24,24.68
		c2.31,5.36,8.08,8.03,13.01,8.03c11.1,0,15.85-9.94,15.85-33.09c0-13.21-1.72-21.84-5.15-26.25c-2.46-3.23-6.45-5.15-11.07-5.15
		C182.11,69.86,177.13,73.67,175.06,79.81z"/>
	<path style="&st0;" d="M314.94,52.84v17.6L271.66,133h44.96l-6.13,17.8h-72.1v-15.88l46.06-64.1h-42.22V52.84H314.94z"/>
	<path style="&st0;" d="M358.29,25.87c0,8.81-7,15.85-15.86,15.85c-8.58,0-15.63-7.04-15.63-15.85c0-8.79,7.29-15.89,16.07-15.89
		C351.45,9.98,358.29,17.08,358.29,25.87z M355.28,50.53V150.8h-25.63V54.56L355.28,50.53z"/>
	<path style="&st0;" d="M401.96,34.68v76.32c0,16.86,0.2,19.13,1.74,21.8c0.97,1.74,3.04,2.68,5.18,2.68c0.92,0,1.47,0,2.86-0.35
		l4.38,15.29c-4.38,1.71-9.75,2.67-15.3,2.67c-10.94,0-19.73-5.15-22.78-13.36c-1.92-4.98-2.34-8.06-2.34-22.02V44.6
		c0-12.81-0.33-20.63-1.29-29.47l26.22-5.93C401.56,14.55,401.96,20.87,401.96,34.68z"/>
	<path style="&st0;" d="M455.13,34.68v76.32c0,16.86,0.22,19.13,1.79,21.8c0.9,1.74,2.98,2.68,5.12,2.68c0.97,0,1.55,0,2.91-0.35
		l4.36,15.29c-4.36,1.71-9.73,2.67-15.3,2.67c-10.92,0-19.73-5.15-22.79-13.36c-1.96-4.98-2.28-8.06-2.28-22.02V44.6
		c0-12.81-0.38-20.63-1.37-29.47l26.18-5.93C454.81,14.55,455.13,20.87,455.13,34.68z"/>
	<path style="&st0;" d="M495.36,56.48c9.53-4.03,17.73-5.74,26.75-5.74c16.48,0,27.75,6.11,31.62,17.02
		c1.27,4.01,1.85,7.07,1.74,17.6l-0.62,32.89c0,0.58,0,1.19,0,1.74c0,10.52,1.74,14.55,9.23,20.08l-13.61,15.71
		c-5.99-2.51-11.32-6.92-13.81-11.88c-1.89,1.93-4.02,3.8-5.95,5.16c-4.75,3.44-11.69,5.37-19.72,5.37
		c-21.82,0-33.67-11.12-33.67-30.6c0-23,15.92-33.73,47.08-33.73c1.87,0,3.65,0,5.77,0.22v-3.99c0-10.93-2.12-14.56-11.56-14.56
		c-8.12,0-17.77,4-28.27,11.09L479.42,64.5C484.62,61.24,488.46,59.34,495.36,56.48z M528.58,107.95
		c-17.73,0-23.94,3.23-23.94,14.95c0,7.62,4.85,12.79,11.36,12.79c4.76,0,9.58-2.49,13.38-6.69l0.42-21.05H528.58z"/>
</g>
<g>
</g>
<g>
</g>
<g>
</g>
<g>
</g>
<g>
</g>
<g>
</g>
</svg>
