<!DOCTYPE svg PUBLIC "-//W3C//DTD SVG 1.1//EN" "http://www.w3.org/Graphics/SVG/1.1/DTD/svg11.dtd" [
	<!ENTITY st0 "fill-rule:evenodd;clip-rule:evenodd;fill:#E11A2C;">
	<!ENTITY st1 "fill-rule:evenodd;clip-rule:evenodd;">
]><svg xmlns="http://www.w3.org/2000/svg" width="565" height="165" viewBox="0 0 565 165"><g fill-rule="evenodd" clip-rule="evenodd"><path d="M60.57 31.85c-2.24 4.72-1.35 8.59 1.99 8.65 3.34.06 7.87-3.72 10.1-8.43 2.24-4.72 1.35-8.6-1.99-8.66-3.34-.06-7.86 3.72-10.1 8.44zm27.21-17.04l.04.07v.03c-1.99 5.65-5.3 12.09-8.59 16.97-6.91 10.26-16.83 16.73-22.15 14.45-5.32-2.28-4.04-12.45 2.88-22.72 1.56-2.31 3.27-4.42 5.03-6.28l.02-.06-.08-.08h-.01c-2.17.3-4.38.73-6.6 1.29l-.04.03c-23.35 28.64-33.29 65.83-31.92 99.01 0 .05-.04.08-.08.08h-.03c-13.76-5.55-23.82-18.85-24.87-35.68l-.01-.2c-1.74-29.96 22.14-60.64 53.34-68.54 12.09-3.06 23.52-2.26 33.07 1.63z" fill="#E11A2C"/><path d="M78.95 95.6c-2.27 1.58-4.64 3.03-7.08 4.34l-.02.01c-.05 0-.09-.03-.09-.08-.46-7.19-2-14.16-4.68-19.96-7.14-15.48-19.62-16.67-27.88-2.66-5.05 8.58-7.35 20.86-6.72 32.66l.05.07c8.75 2.74 18.83 3.04 29.59.33 31.16-7.94 54.99-38.59 53.26-68.52-1.52-26.29-22.26-43.27-48.4-41.7l-.05.02c-2.55 2.59-4.93 5.18-7.16 7.8l-.02.05.08.08h.01c15.31-1.94 27.59 1.17 35.6 7.56l.03.06-.01.04c-27.6 38.92-24.19 61.09-16.48 79.81v.03l-.03.06z"/></g><path d="M428.91 66.29c-4.25 4.26-7.45 12.25-7.45 18.62 0 5.59 2.08 9.07 5.68 9.07 5.76 0 10.73-6.03 12.44-14.86.38-1.97.77-3.98 1.05-5.76.28-1.78.45-3.36.4-4.46-.18-3.77-2.15-5.8-5.67-5.8-2.15 0-4.38 1.12-6.45 3.19zm5.88 39.37l-.02-.07 1.32-6.68c.02-.1-.04-.18-.13-.2-.08-.01-.14.03-.17.09-2.91 4.94-8.62 8.08-15.03 8.08-10.53 0-15.29-9.34-15.29-18.7-.01-10.63 4.16-21.15 11.16-28.14 5.86-5.86 13.42-8.96 21.87-8.96 6.43.03 11.18 1.89 14.16 5.5 4.41 5.34 4.05 13.37 2.95 19.2l-5.7 29.84-.08.06h-14.98l-.06-.02z"/><path d="M336.44 51.08c6.51 0 11.33 1.42 13.65 2.73l.04.08-2.25 11.8-.04.06h-.07c-2.64-1.44-7.19-2.97-12.09-2.97-4.11 0-6.78 1.72-6.78 4.6 0 2.06 2.05 3.92 6.38 6.03 5.64 2.82 12.02 7 12.02 14.55 0 4.93-1.64 9.05-4.88 12.26-4.31 4.27-11.29 6.61-19.7 6.54-6.46-.11-13-1.78-16.27-4.15l-.03-.08 2.25-11.87.05-.06.07.01c3.5 2.2 10.4 4.56 15.46 4.56 3.92 0 6.56-1.81 6.56-4.71 0-2.63-1.86-4.47-6.6-6.79-7.5-3.75-11.25-8.51-11.25-14.11-.01-11.02 9.39-18.48 23.48-18.48z" fill-rule="evenodd" clip-rule="evenodd"/><path d="M493.02 51.19c4 0 8.08.7 10.92 1.86l.05.09-2.42 12.71-.05.05h-.07c-2.44-1.37-5.27-2.03-8.64-2.03-11.28 0-18 9.83-18 19.3 0 8.04 5.37 10.92 10.38 10.92 4.47 0 8.28-.98 13.11-3.36l.08.01.03.08-2.48 13.06-.04.06c-3.67 1.77-9.34 2.84-15.17 2.84-13.69 0-22.51-8.58-22.51-21.86 0-19.23 14.96-33.73 34.81-33.73z" fill-rule="evenodd" clip-rule="evenodd"/><path d="M248.49 51.19c4 0 8.08.7 10.92 1.86l.05.09-2.42 12.71-.05.05h-.07c-2.44-1.37-5.27-2.03-8.65-2.03-11.28 0-18 9.83-18 19.3 0 8.04 5.37 10.92 10.38 10.92 4.48 0 8.28-.98 13.11-3.36l.08.01.03.08-2.47 13.06-.04.06c-3.67 1.77-9.34 2.84-15.17 2.84-13.69 0-22.51-8.58-22.51-21.86-.01-19.23 14.95-33.73 34.81-33.73z" fill-rule="evenodd" clip-rule="evenodd"/><path d="M163.56 50.98c.94 0 2.09.1 2.93.25l.05.03.01.06-3.05 15.35-.03.05-.06.01c-.55-.12-1.43-.25-2.47-.25-10.75 0-14.95 10.51-16.58 19.21l-3.82 20.44-.08.07h-15.68l-.06-.03-.02-.07 10.24-53.87.08-.06h13.79l.06.03.02.05-1.76 9.26c-.01.06 0 .14.08.18.08.04.17.01.22-.07 4.13-6.83 9.83-10.64 16.13-10.64zm20.81 15.31c-4.25 4.26-7.45 12.25-7.44 18.62 0 5.59 2.07 9.07 5.68 9.07 5.77 0 10.73-6.03 12.44-14.86.38-1.97.77-3.98 1.05-5.76.28-1.78.45-3.36.4-4.46-.19-3.77-2.15-5.8-5.67-5.8-2.15 0-4.38 1.12-6.46 3.19zm5.88 39.37l-.02-.07 1.32-6.68c.02-.1-.04-.18-.13-.2-.07-.01-.14.03-.17.09-2.91 4.94-8.61 8.08-15.03 8.08-10.53 0-15.29-9.34-15.29-18.7-.01-10.63 4.17-21.15 11.16-28.14 5.86-5.86 13.42-8.96 21.87-8.96 6.43.03 11.19 1.89 14.16 5.5 4.41 5.34 4.05 13.37 2.95 19.2l-5.7 29.84-.08.06h-14.97l-.07-.02zm183.25-10.8c8.32 0 14.43-11.81 14.43-22.24 0-2.52-.59-8.63-6.4-8.63-5.9 0-10.88 6.72-12.82 16.92-.66 3.48-2.5 13.95 4.79 13.95zm13.62-43.78c10.49 0 17.29 7.95 17.29 20.34 0 12.99-6.24 26.31-17.48 32.3-10.24 5.46-19.39 3.06-22.27-1.21h-.02l-3.83 20.23-.08.07h-15.69l-.06-.03-.01-.06 13.46-70.81.08-.06 13.79.01.06.03.01.06-1.37 7.21c-.01.08-.01.17.07.21.07.03.16 0 .22-.08l.07-.09c4.05-5.19 9.76-8.12 15.76-8.12zm-117.54-17.64h15.58l.06.03.02.07-8.13 42.74.03.06.07-.02 20.91-24.12.06-.03h17.08l.08.05v.03l-.02.05-21.7 24.44 13.24 28.72.01.03-.01.04-.07.04h-16.86l-.07-.05-12.8-28.39-.06-.04-.05.05-5.39 28.36-.08.07h-15.58l-.06-.03-.01-.07 13.67-71.97.08-.06z"/><path d="M535.89 67.17c0-2.76-2.28-4.5-5.69-4.5-6.76 0-11.1 5.47-12.37 10.64l-.05.19v.01h.2c9.17.06 14.34-.88 16.61-3.13.88-.86 1.3-1.91 1.3-3.21zm-3.73-16.08c11.15 0 18.59 6.48 18.59 16.09 0 4.44-1.44 8.1-4.29 10.87-5.22 5.09-15.03 7.42-30.03 7.07h-.17l.01.17c.05 1.55.59 3.73 1.59 5.14 2.05 2.59 5.68 4 10.18 4 6.57 0 12.27-1.6 18.46-5.17h.08l.03.08-2.5 13.13-.04.06c-7.55 3.84-16.4 4.26-19.86 4.26-14.74 0-23.17-8.2-23.17-22.51 0-8.25 3.03-16.52 8.31-22.69 5.8-6.78 13.9-10.5 22.81-10.5z" fill-rule="evenodd" clip-rule="evenodd"/><path d="M550.82 100.12c-.3 3.26 2.08 5.88 5.34 5.88 3.32 0 6.29-2.72 6.59-6.05.29-3.27-2.09-5.88-5.35-5.88-3.31 0-6.28 2.71-6.58 6.05zm-.94-.09c.34-3.82 3.71-6.91 7.52-6.91 3.82 0 6.63 3.09 6.29 6.91-.35 3.81-3.71 6.9-7.53 6.9-3.81.01-6.62-3.09-6.28-6.9zm5.39-4.07l.04-.03h1.75c.44.01.73.01.96.03.3.02.53.07.77.15.88.29 1.38.99 1.38 1.87 0 .15-.02.31-.05.47-.2 1.09-.89 1.98-2.16 2.32l1.11 3.27v.03l-.02.01h-1.14l-.03-.02-1.06-3.12-.7.02h-.79l-.58 3.1-.02.03h-.95l-.03-.01-.01-.03.59-3.12.01-.04.46-2.45.47-2.48zm1.59.97h-.76l-.28 1.53-.29 1.52h.83c.38-.01.64-.01.84-.03.22-.02.39-.05.57-.1.72-.21 1.22-.73 1.35-1.4.12-.66-.18-1.18-.82-1.39-.16-.06-.31-.09-.53-.1l-.83-.03h-.08zm-254.5 61.65h-4.42l-.06-.03-.02-.06 5.06-26.68.08-.07h4.42l.06.03.01.07-5.07 26.68-.06.06zm152.44 0h-2.81l-.06-.03-.01-.06 2.04-10.71c.1-.63.14-1.49.09-2.1-.19-2.42-1.74-3.88-4.14-3.88-2.75 0-5.32 2.6-5.99 6.04l-1.97 10.67-.08.06h-2.81l-.06-.03-.01-.06 2.01-10.71c.12-.58.18-1.44.12-2.1-.18-2.39-1.79-3.88-4.17-3.88-2.75 0-5.32 2.6-5.99 6.04l-2.01 10.67-.07.06h-2.82l-.06-.03-.02-.06 3.56-18.89.08-.07h2.81l.06.03.01.07-.51 2.77c1.63-1.97 3.29-3.27 5.88-3.27 2.73 0 4.86 1.55 5.73 4.16 1.61-2.72 4.11-4.16 7.24-4.16 3.5 0 6.03 2.38 6.31 5.92.06.72-.07 1.56-.19 2.37l-.09.57-1.98 10.53c-.01.06-.05.08-.09.08zm64.53 0h-2.82l-.06-.03-.02-.06 2.01-10.71c.12-.58.18-1.45.12-2.1-.19-2.42-1.86-3.88-4.47-3.88-2.95 0-5.59 2.54-6.28 6.04l-2.01 10.67-.08.06h-2.81l-.06-.03-.02-.06 3.56-18.89.08-.07h2.81l.06.03.01.07-.5 2.77c1.38-1.65 3.2-3.27 6.17-3.27 3.7 0 6.28 2.33 6.57 5.92.06.75-.02 1.69-.25 2.95l-1.95 10.52-.06.07zm5.44 5.96c-1.54 0-2.91-.42-4.28-1.33-.03-.02-.05-.07-.02-.11l1.37-2.11.05-.04.06.01c.7.52 1.99.93 2.92.93 1.69 0 3.02-.99 4.57-3.4l-4.91-18.86.02-.07.06-.03h2.92l.08.06 3.82 15.59 8.82-15.6.07-.04h3.18l.07.04v.08l-11.4 19.54c-2.31 3.79-4.45 5.34-7.4 5.34zm-131.28-5.52c-4.18 0-8.63-2.86-9.04-8.33-.22-3.04.81-6.05 2.84-8.25 1.94-2.11 4.67-3.32 7.47-3.32 4.59 0 6.93 2.8 7.91 4.46l-.02.11-2.16 1.43-.11-.02c-1.04-1.55-2.62-3.32-5.61-3.32-1.87 0-3.71.86-5.05 2.35-1.59 1.73-2.4 4.09-2.22 6.48.29 3.79 3.22 5.77 5.97 5.77 1.95 0 3.6-.76 5.33-2.46l.06-.02.05.02 1.78 1.83v.11c-2.14 2.16-4.42 3.16-7.2 3.16zm-56.38-.03c-3.62 0-6.14-2.29-6.42-5.85-.08-1.01.1-2.24.32-3.42l1.99-10.52.08-.07h4.42l.06.03.01.07-2.04 10.71c-.11.59-.15 1.38-.1 1.91.15 1.88 1.42 2.96 3.48 2.96 2.39 0 4.29-1.87 4.84-4.76l2.08-10.85.08-.07h4.42l.07.03.02.07-3.64 19.3-.08.06h-4.42l-.06-.03-.02-.06.41-2.22c-1.25 1.3-2.98 2.71-5.5 2.71zm-49.05.03c-5.24 0-9.16-3.56-9.55-8.66-.23-3.09.77-6 2.81-8.21 2.01-2.18 4.85-3.43 7.79-3.43 4.45 0 6.91 2.41 8.2 4.42l-.02.11-3.25 2.34-.06.02-.05-.03c-1.03-1.48-2.34-2.85-4.89-2.85-1.46 0-2.93.68-4.03 1.88-1.37 1.53-2.07 3.61-1.92 5.71.21 2.75 2.24 4.75 4.84 4.75 1.74 0 3.1-.62 4.7-2.13l.06-.03.06.03 2.55 2.89v.11c-1.58 1.52-3.66 3.08-7.24 3.08zm-23.68-.44h-4.42l-.06-.03-.02-.06 2.01-10.71c.13-.59.19-1.36.14-1.92-.15-1.88-1.43-2.96-3.52-2.96-2.39 0-4.29 1.87-4.84 4.76l-2.03 10.85-.08.06h-4.46l-.06-.03-.01-.06 3.63-19.29.08-.07h4.42l.06.03.02.07-.42 2.19c1.25-1.29 3-2.68 5.53-2.68 3.59 0 6.1 2.3 6.38 5.85.08 1.05-.12 2.31-.32 3.42l-1.95 10.52-.08.06zm-118.4 0h-2.81l-.06-.03-.01-.06 2.01-10.71c.12-.58.18-1.44.12-2.1-.19-2.42-1.86-3.88-4.47-3.88-2.95 0-5.59 2.54-6.28 6.04l-2.01 10.67-.08.06h-2.81l-.06-.03-.02-.06 5.07-26.68.08-.07h2.81l.06.03.01.07-2.01 10.55c1.37-1.65 3.2-3.26 6.16-3.26 3.71 0 6.28 2.33 6.57 5.92.05.75-.02 1.69-.25 2.95l-1.95 10.52-.07.07zm14.19.44c-5.05 0-8.7-3.26-9.08-8.11-.25-3.11.85-6.31 2.93-8.57 1.93-2.1 4.43-3.21 7.23-3.21 5.1 0 7.67 3.67 7.95 7.31.09 1.2-.03 2.41-.38 3.61l-.07.06h-14.72c-.01.2.01.41.02.61l.01.08c.27 3.42 2.65 5.63 6.07 5.63 2.51 0 4.04-.88 5.58-2.21l.05-.02.06.03 1.61 1.86c.03.03.03.08-.01.11-1.47 1.3-3.61 2.82-7.25 2.82zm-5.92-11.19h12c.08-.35.1-.81.05-1.38-.18-2.32-1.6-4.79-5.02-4.79-1.9 0-3.64.78-5.03 2.24-.94 1.03-1.63 2.39-2 3.93zm-31.66 11.08c-2.93 0-4.77-1.42-4.95-3.8-.04-.61 0-1.33.11-1.99l2.11-10.94h-2.49l-.06-.03-.01-.07.47-2.48.08-.07h2.56l1.09-5.64.08-.06h2.77l.06.03.01.07-1.09 5.61h5.85l.06.03.01.07-.47 2.48-.07.06h-5.88l-2.1 10.82c-.03.31-.07.92-.04 1.37.12 1.54 1.51 1.86 2.65 1.86.85 0 1.75-.19 2.66-.58l.08.01.03.08-.5 2.56-.05.06c-.92.39-1.81.55-2.97.55zm195.16.11c-5.38 0-9.42-3.65-9.83-8.88-.23-2.92.79-5.85 2.8-8.03 1.97-2.18 4.69-3.39 7.65-3.39 2.69 0 5.07.87 6.85 2.53 1.73 1.6 2.79 3.87 2.99 6.39.23 2.94-.79 5.85-2.8 7.99-1.98 2.19-4.7 3.39-7.66 3.39zm.66-16.29c-1.5 0-2.94.65-4.07 1.84-1.3 1.37-2.04 3.5-1.89 5.42.25 3.11 2.26 5.04 5.26 5.04 1.55 0 3.03-.67 4.07-1.84 1.3-1.37 2.04-3.49 1.89-5.42-.25-3.11-2.27-5.04-5.26-5.04zm95.25 16.29c-5.1 0-8.94-3.52-9.33-8.55-.23-2.94.79-5.85 2.79-7.99 1.96-2.13 4.7-3.35 7.51-3.35 5.12 0 8.97 3.5 9.37 8.52.23 2.89-.79 5.82-2.8 8.03-1.96 2.12-4.7 3.34-7.54 3.34zm.99-17.25c-1.91 0-3.73.83-5.13 2.35-1.55 1.67-2.36 4.02-2.18 6.26.29 3.67 2.71 5.96 6.31 5.96 1.93 0 3.75-.82 5.13-2.31 1.54-1.68 2.36-4.02 2.18-6.26-.29-3.7-2.7-6-6.31-6zm46.46 22.66h-2.81l-.06-.03-.02-.06 4.67-24.74.08-.07h2.81l.06.03.01.07-.56 2.94c1.93-2.32 4.13-3.44 6.74-3.44 4.45 0 7.82 3.32 8.2 8.08.26 3.3-.78 6.47-2.85 8.72-1.84 1.99-4.29 3.09-6.91 3.09-4.11 0-6.29-2.41-7.42-4.52l-1.87 9.86-.07.07zm10.31-22.66c-1.97 0-3.91.91-5.33 2.5-1.63 1.77-2.47 4.07-2.29 6.3.26 3.37 2.88 5.81 6.23 5.81 1.88 0 3.63-.77 4.96-2.17 1.57-1.74 2.35-4.19 2.15-6.73-.28-3.41-2.57-5.71-5.72-5.71zm17.52 17.21c-2.92 0-6.2-1.66-6.48-5.3-.14-1.79.36-3.37 1.46-4.55 1.4-1.52 3.71-2.37 6.49-2.37 2.05 0 4.25.33 6.74 1l.06-.35c.11-.58.16-1.26.12-1.73-.2-2.46-2.04-3.76-5.34-3.76-2.19 0-3.87.5-5.23.98h-.06l-.04-.05-.65-2.34.04-.09c2.05-.79 3.96-1.14 6.19-1.14 4.76 0 7.66 2.16 7.96 5.92.06.79-.01 1.72-.2 2.62l-2 10.7-.08.06h-2.74l-.06-.03-.02-.07.51-2.65c-1.78 2.09-4.02 3.15-6.67 3.15zm1.73-9.97c-1.84 0-3.35.55-4.28 1.55-.71.74-1.05 1.7-.96 2.79.16 2 1.8 3.29 4.2 3.29 3.31 0 6.28-2.39 6.9-5.56l.25-1.24c-1.89-.54-4.06-.83-6.11-.83zm-130.41 9.98c-4.55 0-7.86-3.35-8.26-8.33-.26-3.37.75-6.48 2.84-8.76 1.86-2.01 4.43-3.17 7.05-3.17 2.93 0 5.15 1.21 6.76 3.71l2-10.62.08-.07h4.42l.06.03.02.07-5.03 26.68-.08.06h-4.42l-.06-.03-.02-.07.44-2.28c-1.76 1.89-3.61 2.78-5.8 2.78zm2.45-16.3c-1.55 0-3.01.65-4.11 1.84-1.35 1.47-2.03 3.59-1.85 5.82.22 2.84 2.14 4.68 4.9 4.68 1.62 0 3.19-.72 4.31-1.98 1.4-1.52 2.11-3.54 1.95-5.56-.22-2.83-2.35-4.8-5.2-4.8zm-156.84 21.74h-4.46l-.06-.03-.02-.06 4.75-25.14.08-.07h4.42l.06.03.01.07-.44 2.29c1.83-1.92 3.64-2.79 5.81-2.79 4.54 0 7.86 3.35 8.26 8.33.26 3.37-.75 6.48-2.85 8.76-1.85 2.01-4.41 3.17-7.01 3.17-2.92 0-5.21-1.25-6.8-3.7l-1.68 9.08-.07.06zm8.82-21.74c-1.63 0-3.17.71-4.35 1.98-1.38 1.49-2.07 3.52-1.91 5.57.22 2.77 2.39 4.78 5.16 4.78 1.57 0 3.07-.67 4.11-1.84 1.38-1.45 2.04-3.52 1.86-5.82-.24-2.84-2.14-4.67-4.87-4.67zm21.65 16.33c-5.45 0-9.1-3.26-9.51-8.52-.25-3.07.85-6.23 2.91-8.46 1.97-2.14 4.67-3.32 7.62-3.32 4.72 0 8.02 2.97 8.38 7.56.11 1.36-.08 2.79-.52 4.13l-.08.05h-13.95c.27 2.99 2.25 4.77 5.31 4.77 1.73 0 3.11-.53 4.74-1.85l.11.01 2.34 2.81-.01.11c-2.03 1.83-4.42 2.71-7.34 2.71zm-4.89-11.63h9.85c.08-.34.1-.79.06-1.27-.18-2.26-1.69-3.62-4.05-3.62-1.65 0-3.12.65-4.25 1.87-.74.81-1.3 1.85-1.61 3.02zm-40.85 11.63c-5.38 0-9.43-3.65-9.83-8.88-.23-2.92.79-5.85 2.8-8.03 1.97-2.18 4.69-3.39 7.65-3.39 2.69 0 5.06.87 6.85 2.53 1.72 1.6 2.79 3.87 2.99 6.39.23 2.94-.79 5.85-2.8 7.99-1.98 2.19-4.71 3.39-7.66 3.39zm.66-16.29c-1.49 0-2.94.65-4.07 1.84-1.3 1.37-2.04 3.5-1.89 5.42.24 3.11 2.25 5.04 5.26 5.04 1.55 0 3.03-.67 4.07-1.84 1.3-1.37 2.04-3.49 1.89-5.42-.25-3.11-2.27-5.04-5.26-5.04z"/></svg>