<svg xmlns="http://www.w3.org/2000/svg" width="565" height="165" viewBox="0 0 565 165"><path d="M502.577 165h-440.114l-.067-165h440.209l-.028 165zm-426.682-13.205h124.682l-.005-138.465h-124.682l.005 138.465z"/><path fill="#ff0" d="M200.811 13.324l-125.173-.016-.041 79.682h21.639c17.813.334 16.15 12.439 17.714 23.469 1.592 11.21 12.317 16.709 21.312 16.709 11.776 0 21.1-10.098 21.1-22.138 0-9.278-4.256-15.96-22.573-23.769-20.771-8.793-26.003-21.166-26.003-33.211 0-19.699 15.047-32.884 32.547-32.884 9.162 0 19.153 2.925 25.915 10.554 5.478 6.177 7.45 12.388 7.233 20.071-.099 3.368-.49 7.678 6.33 7.773l20.001.046v-46.286z"/><path fill="#f00" d="M200.969 70.775l-18.867-.08s-19.96 1.553-18.833-13.752c.54-7.373-1.632-13.001-3.165-15.369-3.979-6.148-10.613-9.222-18.624-9.222-11.777 0-20.432 9.813-20.432 20.07 0 8.952 4.347 18.947 22.825 26.11 16.032 6.187 25.995 16.955 25.995 31.932 0 15.787-11.988 34.205-33.577 34.205-11.122 0-21.184-2.647-28.895-13.683-3.918-5.601-5.422-12.838-5.695-20.071-.207-5.544-1.675-6.781-5.488-6.781l-20.571.068.013 47.973h125.255v-80.722l.059-.678z"/><path d="M199.793 71.544m1.561.045h-18.354l-1.679-.013c-2.198-.005-6.74-.226-10.879-2.028-4.134-1.758-7.94-5.405-7.906-11.752 0-.42.017-.85.049-1.29.059-.825.088-1.609.088-2.353-.005-5.736-1.634-9.206-2.897-11.173-4.99-7.677-11.164-9.898-18.565-9.814-5.708.066-10.738 2.775-14.105 6.432-3.362 3.657-5.326 8.553-5.323 13.404.005 4.302 1.08 8.666 4.379 12.891 3.302 4.222 8.892 8.324 18.014 11.86 16.271 6.238 26.205 17.572 26.181 33.038-.003 8.135-2.865 16.737-8.533 23.354-5.659 6.619-14.178 11.208-25.26 11.2h-.194c-11.186 0-21.693-2.83-29.551-14.125-4.079-5.824-5.245-12.237-5.519-19.545-.094-2.668-.623-4.425-1.396-5.416-.772-.979-1.78-1.428-3.493-1.445h-20.975v-12.882l22.885.019c4.284.071 7.098 1.017 9.671 2.484 2.577 1.465 4.253 3.563 5.32 5.943 2.126 4.764 2.061 10.609 2.844 16.023.758 5.299 3.635 9.204 7.443 11.853 3.806 2.643 8.553 3.97 12.842 3.966 5.585 0 10.583-2.389 14.209-6.229 3.625-3.839 5.853-9.122 5.853-14.872-.015-4.489-.988-8.129-4.159-11.748-3.179-3.62-8.692-7.191-17.781-11.064-10.515-4.448-17.201-9.855-21.242-15.754-4.043-5.897-5.397-12.244-5.393-18.412-.004-10.115 3.877-18.627 10.025-24.573 6.147-5.951 14.548-9.348 23.558-9.348 9.364-.005 19.148 2.925 26.155 10.829 5.391 6.065 7.699 12.848 7.688 20.313 0 .355-.004.711-.013 1.077-.013.369-.023.74-.023 1.104-.004 1.456.183 2.697.853 3.508.654.809 1.95 1.518 4.818 1.565h1.086l19.347.007v12.966h-.068zM201.871 71.182"/><g fill="#f00"><path d="M246.816 152.278h-32.683v-61.565h9.224v53.679h23.459v7.886zM331.99 152.278h-9.702l-5.488-18.108h-18.607l-5.249 18.108h-9.463l18.608-61.565h11.292l18.609 61.565zm-16.701-25.273l-4.771-16.096c-1.111-4.023-2.146-8.366-3.021-12.149h-.158c-.876 3.783-1.828 8.288-2.864 12.071l-4.85 16.174h15.664zM399.192 119.28c6.36 1.612 12.165 6.762 12.165 15.372 0 6.52-3.021 10.303-5.247 12.394-4.058 3.943-10.736 5.794-20.756 5.794-5.409 0-9.464-.401-12.09-.724v-60.6c3.42-.725 8.83-1.289 14.234-1.289 18.531 0 21.712 9.177 21.712 15.372 0 5.874-3.658 11.025-10.019 13.441v.24zm-11.134-2.898c7.316 0 11.927-4.104 11.927-9.815 0-7.405-5.885-9.256-11.609-9.256-3.021 0-4.853.241-5.964.483v18.588h5.646zm-5.647 28.972c1.353.242 3.18.324 5.568.324 7.395 0 13.756-3.14 13.756-11.269 0-8.127-6.917-11.104-13.998-11.104h-5.326v22.049zM485.245 100.288c-1.991-1.127-5.806-2.736-10.815-2.736-7.239 0-10.261 4.264-10.261 8.207 0 5.232 3.42 7.809 11.132 11.188 9.783 4.346 14.476 9.738 14.476 18.187 0 10.303-7.557 18.026-21.232 18.026-5.726 0-11.77-1.689-14.712-3.698l2.067-7.807c3.261 2.011 8.188 3.62 13.199 3.62 7.236 0 11.294-3.782 11.294-9.336 0-5.231-3.103-8.451-10.337-11.509-9.068-3.702-15.19-9.252-15.19-17.625 0-9.735 7.713-17.059 19.803-17.059 5.806 0 10.177 1.447 12.803 2.814l-2.227 7.728z"/></g><g fill="#ff0"><path d="M245.517 23.422c-2.24-1.479-6.387-3.633-11.879-3.633-6.725 0-10.311 4.198-10.311 9.19 0 5.328 3.473 7.823 11.319 11.227 9.861 4.083 15.578 9.303 15.578 18.602 0 11.005-8.293 18.269-21.631 18.269-6.051 0-11.879-1.707-16.025-4.198l2.579-7.263c3.25 1.93 8.516 4.197 13.785 4.197 8.181 0 12.212-4.424 12.212-9.98 0-5.784-3.248-8.964-11.318-12.252-10.311-4.194-15.579-9.979-15.579-17.468 0-9.641 7.622-17.581 19.951-17.581 5.828 0 10.759 1.703 14.009 3.742l-2.69 7.148zM307.565 61.078c0 5.107.109 10.435.897 14.747h-8.519l-.896-7.94h-.336c-3.14 4.879-9.417 9.305-18.046 9.305-11.654 0-17.818-8.623-17.818-17.584 0-14.86 12.774-22.915 35.415-22.802 0-5.211 0-17.014-13.896-17.014-5.269 0-10.759 1.473-14.908 4.423l-2.241-6.466c4.931-3.287 11.765-5.215 18.605-5.215 17.26 0 21.743 12.365 21.743 24.616v23.93zm-9.192-17.352c-11.542 0-25.999 1.7-25.999 14.746 0 7.94 4.931 11.456 10.533 11.456 9.077 0 15.466-7.035 15.466-14.521v-11.681zM371.923 59.376c0 6.354.334 11.688.56 16.448h-8.405l-.449-9.753h-.334c-2.803 4.879-9.078 11.118-19.504 11.118-9.19 0-20.06-5.336-20.06-26.661v-36.525h9.301v34.823c0 12.022 3.473 20.416 13.672 20.416 7.288 0 15.914-5.897 15.914-16.78v-38.459h9.306v45.373zM430.884 73.554c-2.693 1.365-8.744 3.522-16.588 3.522-17.484 0-29.026-12.59-29.026-31.535 0-19.059 12.438-33.01 31.268-33.01 6.839 0 12.326 2.043 14.681 3.288l-2.354 7.604c-2.575-1.479-6.612-3.179-12.551-3.179-14.118 0-21.519 11.461-21.519 24.729 0 14.975 8.856 24.387 21.184 24.387 6.052 0 10.197-1.701 13.222-3.06l1.683 7.254zM486.48 73.219c-3.476 1.7-9.864 3.857-19.166 3.857-17.821 0-28.468-12.706-28.468-31.195 0-19.398 10.762-33.35 27.236-33.35 18.831 0 23.646 17.467 23.646 28.243 0 2.156-.111 3.743-.221 5.219h-41.582c.115 17.126 9.751 23.59 20.733 23.59 7.622 0 12.217-1.585 16.029-3.172l1.793 6.808zm-5.938-34.261c.108-8.394-3.365-19.284-15.354-19.284-11.207 0-16.139 10.777-17.038 19.284h32.392z"/></g></svg>