<?xml version="1.0" encoding="utf-8"?>
<!-- Generator: Adobe Illustrator 17.0.0, SVG Export Plug-In . SVG Version: 6.00 Build 0)  -->
<!DOCTYPE svg PUBLIC "-//W3C//DTD SVG 1.1//EN" "http://www.w3.org/Graphics/SVG/1.1/DTD/svg11.dtd">
<svg version="1.1" id="Layer_1" xmlns="http://www.w3.org/2000/svg" xmlns:xlink="http://www.w3.org/1999/xlink" x="0px" y="0px"
	 width="565px" height="165px" viewBox="0 0 565 165" enable-background="new 0 0 565 165" xml:space="preserve">
<path fill="#444345" d="M226.341,59.486c-0.655,1.93-1.547,3.838-2.712,5.701c-1.868-0.888-3.777-1.635-5.741-2.216
	c-1.969-0.58-4.534-0.873-7.683-0.873c-1.166,0-2.415,0.094-3.726,0.293c-1.305,0.195-2.513,0.563-3.577,1.11
	c-1.054,0.553-1.941,1.302-2.652,2.272c-0.72,0.969-1.077,2.216-1.077,3.772c0,2.186,0.794,3.995,2.387,5.412
	c1.565,1.406,3.585,2.823,6.038,4.252c2.183,1.214,4.213,2.445,6.08,3.657c1.868,1.24,3.507,2.555,4.929,3.97
	c1.422,1.423,2.527,3.012,3.335,4.781c0.804,1.779,1.208,3.823,1.208,6.144c0,3.285-0.599,6.435-1.788,9.46
	c-1.189,3.038-3.024,5.679-5.509,7.922c-2.476,2.263-5.616,4.061-9.425,5.408c-3.795,1.365-8.31,2.042-13.521,2.042
	c-6.057,0-12.012-1.123-17.879-3.389c0.251-1.934,0.729-3.874,1.398-5.848c0.683-1.955,1.5-4.004,2.467-6.134
	c2.443,0.908,4.942,1.68,7.483,2.321c2.55,0.641,5.021,0.966,7.395,0.966c1.992,0,3.855-0.223,5.569-0.676
	c1.7-0.456,3.182-1.124,4.436-2.018c1.25-0.915,2.234-2.006,2.954-3.288c0.701-1.287,1.059-2.805,1.059-4.543
	c0-1.287-0.297-2.424-0.878-3.386c-0.576-0.961-1.319-1.837-2.21-2.611c-0.916-0.785-1.975-1.5-3.196-2.179
	c-1.231-0.673-2.457-1.398-3.674-2.169c-4.12-2.457-7.39-4.975-9.805-7.59c-2.411-2.598-3.623-5.685-3.623-9.22
	c0-3.475,0.613-6.589,1.839-9.328c1.217-2.731,2.954-5.037,5.212-6.911c2.258-1.859,4.975-3.309,8.175-4.301
	c3.181-0.994,6.768-1.488,10.762-1.488c3.549,0,6.61,0.269,9.179,0.749c2.583,0.536,5.291,1.343,8.124,2.429
	C227.433,55.733,226.982,57.555,226.341,59.486L226.341,59.486z M270.594,90.317c-1.347,2.124-3.153,3.939-5.411,5.416
	c-2.253,1.471-4.817,2.685-7.688,3.611c-2.861,0.937-5.848,1.643-8.932,2.09l-6.479,1.057c0.394,3.089,1.422,5.402,3.094,6.912
	c1.677,1.506,4.138,2.268,7.339,2.268c2.583,0,4.859-0.271,6.819-0.826c1.961-0.54,4.046-1.265,6.229-2.174
	c1.027,1.297,1.728,2.852,2.086,4.685c0.344,1.84,0.521,3.795,0.521,5.848c-1.092,0.518-2.351,0.994-3.814,1.401
	c-1.435,0.431-2.94,0.778-4.492,1.07c-1.551,0.29-3.089,0.511-4.64,0.671c-1.547,0.156-2.922,0.248-4.148,0.248
	c-3.934,0-7.293-0.491-10.103-1.45c-2.801-0.964-5.118-2.33-6.962-4.114c-1.821-1.767-3.182-3.929-4.055-6.473
	c-0.869-2.545-1.296-5.369-1.296-8.454c0-3.929,0.678-7.787,2.025-11.586c1.356-3.809,3.27-7.201,5.755-10.195
	c2.471-3.007,5.495-5.416,9.081-7.262c3.572-1.837,7.585-2.753,12.026-2.753c2.127,0,4.102,0.276,5.94,0.785
	c1.849,0.515,3.433,1.305,4.784,2.364c1.352,1.062,2.415,2.374,3.201,3.908c0.757,1.548,1.152,3.352,1.152,5.419
	C272.624,85.669,271.95,88.189,270.594,90.317L270.594,90.317z M258.368,81.533c-0.808-0.788-1.882-1.171-3.233-1.171
	c-1.672,0-3.209,0.373-4.594,1.113c-1.384,0.734-2.592,1.734-3.623,2.939c-1.031,1.226-1.918,2.629-2.662,4.207
	c-0.738,1.593-1.295,3.177-1.686,4.784l5.026-0.771c2.439-0.381,4.441-0.881,5.988-1.5c1.551-0.608,2.763-1.287,3.664-2.028
	c0.911-0.734,1.524-1.496,1.849-2.27c0.321-0.762,0.479-1.542,0.479-2.313C259.576,83.289,259.177,82.299,258.368,81.533
	L258.368,81.533z M323.347,86.26c-0.121,1.093-0.293,2.248-0.474,3.476l-5.611,31.693c-2.448,0.393-4.798,0.58-7.056,0.58
	c-2.252,0-4.478-0.187-6.656-0.58l5.407-30.633c0.246-1.285,0.377-2.51,0.377-3.663c0-1.924-0.418-3.289-1.254-4.069
	c-0.832-0.765-2.021-1.16-3.572-1.16c-0.901,0-1.914,0.24-3.042,0.664c-1.129,0.465-2.267,1.416-3.428,2.866
	c-1.157,1.454-2.29,3.498-3.386,6.143c-1.096,2.632-2.03,6.111-2.809,10.431l-3.568,19.421c-2.508,0.393-4.854,0.58-7.042,0.58
	c-2.267,0-4.482-0.187-6.684-0.58l5.235-28.502c0.701-4.065,1.236-7.65,1.584-10.779c0.358-3.133,0.529-5.55,0.529-7.284
	c0-0.717,0-1.313,0-1.805c0-0.481-0.028-1.003-0.093-1.583c2.118-0.385,4.251-0.58,6.373-0.58c0.971,0,1.927,0.042,2.903,0.144
	c0.971,0.107,1.988,0.237,3.089,0.437c0.135,0.518,0.26,1.12,0.395,1.835c0.121,0.717,0.19,1.767,0.19,3.204
	c0,0.559-0.023,1.144-0.047,1.728c-0.037,0.573-0.116,1.275-0.237,2.12c0.766-1.354,1.733-2.642,2.889-3.847
	c1.171-1.234,2.476-2.307,3.962-3.204c1.486-0.909,3.071-1.606,4.784-2.129c1.705-0.517,3.428-0.783,5.17-0.783
	c3.855,0,6.879,0.989,9.039,2.963c2.155,1.958,3.228,5.227,3.228,9.801C323.542,84.136,323.477,85.166,323.347,86.26L323.347,86.26z
	 M377.949,64.803l-6.294,34.985c-0.697,4.046-1.212,7.65-1.537,10.768c-0.325,3.125-0.479,5.556-0.479,7.29c0,0.725,0,1.31,0,1.795
	c0,0.481,0.023,1.012,0.097,1.603c-2.127,0.375-4.223,0.579-6.289,0.579c-1.798,0-3.79-0.204-5.978-0.579
	c-0.135-0.511-0.27-1.138-0.4-1.84c-0.125-0.702-0.186-1.775-0.186-3.187c0-0.581,0.014-1.26,0.046-2.028
	c0.023-0.774,0.116-1.581,0.237-2.425c-0.901,1.495-1.974,2.88-3.233,4.215c-1.254,1.311-2.648,2.458-4.161,3.425
	c-1.51,0.966-3.136,1.74-4.868,2.307c-1.756,0.588-3.581,0.883-5.514,0.883c-4.25,0-7.446-1.35-9.564-4.068
	c-2.132-2.699-3.2-6.28-3.2-10.712c0-4.845,0.734-9.508,2.192-14.017c1.44-4.521,3.595-8.503,6.471-11.986
	c2.857-3.476,6.434-6.275,10.675-8.357c4.25-2.096,9.216-3.149,14.873-3.149c0.45,0,0.892,0.028,1.305,0.051
	c0.423,0.042,0.799,0.042,1.115,0.042c0.706-3.79,1.208-7.008,1.496-9.639c0.293-2.655,0.436-4.851,0.436-6.582
	c0-0.711-0.018-1.298-0.046-1.786c-0.028-0.484-0.088-1.006-0.148-1.592c1.091-0.198,2.35-0.342,3.781-0.439
	c1.408-0.09,2.62-0.139,3.66-0.139c1.876,0,3.93,0.179,6.187,0.579c0.325,0.963,0.483,2.183,0.483,3.67
	C379.105,57.297,378.724,60.76,377.949,64.803L377.949,64.803z M359.638,81.565c-0.553-0.023-1.078-0.032-1.585-0.032
	c-3.121,0-5.727,0.766-7.887,2.311c-2.169,1.54-3.953,3.481-5.365,5.794c-1.422,2.323-2.443,4.817-3.08,7.485
	c-0.655,2.679-0.975,5.122-0.975,7.296c0,4.766,1.579,7.141,4.738,7.141c3.08,0,5.954-1.864,8.588-5.629
	c2.653-3.783,4.571-9.069,5.806-15.914l1.44-8.205C360.735,81.683,360.177,81.602,359.638,81.565L359.638,81.565z M433.266,59.202
	c-0.618,1.74-1.458,3.642-2.559,5.694c-1.997-0.836-3.841-1.378-5.514-1.627c-1.672-0.269-3.312-0.386-4.933-0.386
	c-4.315,0-8.003,0.943-11.06,2.787c-3.061,1.871-5.57,4.297-7.534,7.298c-1.965,2.996-3.423,6.405-4.343,10.195
	c-0.939,3.806-1.403,7.633-1.403,11.497c0,5.611,1.361,9.595,4.102,11.991c2.741,2.37,6.359,3.552,10.874,3.552
	c0.901,0,1.896-0.031,3.001-0.132c1.092-0.088,1.928-0.209,2.504-0.333l4.25-24.248c1.292-0.27,2.508-0.451,3.679-0.53
	c1.166-0.097,2.285-0.15,3.381-0.15c1.096,0,2.235,0.052,3.423,0.15c1.199,0.079,2.379,0.26,3.53,0.53l-6.08,34.399
	c-2.839,0.954-6.025,1.651-9.564,2.075c-3.549,0.415-6.865,0.629-9.964,0.629c-4.691,0-8.82-0.677-12.36-2.042
	c-3.544-1.347-6.507-3.216-8.9-5.594c-2.383-2.373-4.161-5.212-5.351-8.451c-1.194-3.261-1.793-6.783-1.793-10.574
	c0-6.263,0.925-12.119,2.797-17.597c1.862-5.47,4.5-10.25,7.877-14.36c3.372-4.08,7.46-7.294,12.23-9.645
	c4.761-2.359,10.052-3.53,15.835-3.53c3.024,0,5.736,0.197,8.129,0.585c2.379,0.377,4.798,1.118,7.242,2.217
	C434.367,55.596,433.88,57.472,433.266,59.202L433.266,59.202z M472.832,78.618c-0.45,1.93-1.063,3.547-1.83,4.838
	c-0.39-0.065-0.804-0.138-1.268-0.19c-0.451-0.056-1.031-0.103-1.733-0.103c-2.628,0-4.821,0.459-6.516,1.36
	c-1.714,0.898-3.122,2.166-4.214,3.82c-1.091,1.64-1.964,3.618-2.596,5.936c-0.65,2.318-1.231,4.885-1.747,7.729l-3.567,19.421
	c-2.527,0.393-4.873,0.58-7.06,0.58c-2.258,0-4.487-0.187-6.67-0.58l5.23-28.502c0.687-4.065,1.221-7.65,1.579-10.779
	c0.362-3.133,0.538-5.55,0.538-7.284c0-0.717,0-1.313,0-1.805c0-0.481-0.037-1.003-0.107-1.583c2.132-0.385,4.255-0.58,6.392-0.58
	c0.961,0,1.923,0.042,2.894,0.144c0.961,0.107,1.993,0.237,3.08,0.437c0.149,0.518,0.265,1.12,0.4,1.835
	c0.121,0.717,0.186,1.767,0.186,3.204c0,0.559-0.01,1.144-0.038,1.728c-0.041,0.573-0.116,1.275-0.246,2.12
	c0.641-1.153,1.453-2.302,2.415-3.437c0.961-1.129,2.039-2.137,3.232-3.033c1.189-0.898,2.508-1.626,3.962-2.178
	c1.45-0.543,3.038-0.818,4.784-0.818c1.352,0,2.522,0.167,3.47,0.479c0.074,0.257,0.107,0.524,0.107,0.776c0,0.252,0,0.556,0,0.874
	C473.51,74.826,473.283,76.685,472.832,78.618L472.832,78.618z M489.452,121.429c-2.457,0.393-4.77,0.58-6.959,0.58
	c-1.997,0-4.152-0.187-6.475-0.58l6.968-39.524h-6.094c0-0.181-0.019-0.372-0.047-0.576c-0.032-0.181-0.06-0.418-0.06-0.674
	c0-1.669,0.172-3.238,0.487-4.691c0.321-1.446,0.804-2.939,1.45-4.487h19.532L489.452,121.429L489.452,121.429z M550.227,64.803
	l-6.275,34.985c-0.711,4.046-1.222,7.65-1.547,10.768c-0.325,3.125-0.483,5.556-0.483,7.29c0,0.725,0,1.31,0,1.795
	c0,0.481,0.032,1.012,0.097,1.603c-2.132,0.375-4.227,0.579-6.28,0.579c-1.806,0-3.809-0.204-5.997-0.579
	c-0.13-0.511-0.255-1.138-0.376-1.84c-0.139-0.702-0.195-1.775-0.195-3.187c0-0.581,0.014-1.26,0.042-2.028
	c0.032-0.774,0.116-1.581,0.237-2.425c-0.891,1.495-1.974,2.88-3.228,4.215c-1.259,1.311-2.643,2.458-4.162,3.425
	c-1.505,0.966-3.14,1.74-4.877,2.307c-1.747,0.588-3.568,0.883-5.5,0.883c-4.259,0-7.451-1.35-9.569-4.068
	c-2.132-2.699-3.187-6.28-3.187-10.712c0-4.845,0.729-9.508,2.165-14.017c1.458-4.521,3.604-8.503,6.489-11.986
	c2.852-3.476,6.415-6.275,10.669-8.357c4.245-2.096,9.202-3.149,14.883-3.149c0.455,0,0.883,0.028,1.301,0.051
	c0.418,0.042,0.79,0.042,1.105,0.042c0.702-3.79,1.222-7.008,1.496-9.639c0.297-2.655,0.437-4.851,0.437-6.582
	c0-0.711-0.014-1.298-0.051-1.786c-0.032-0.484-0.079-1.006-0.135-1.592c1.096-0.198,2.355-0.342,3.768-0.439
	c1.407-0.09,2.634-0.139,3.674-0.139c1.867,0,3.93,0.179,6.178,0.579c0.325,0.963,0.478,2.183,0.478,3.67
	C551.384,57.297,551.007,60.76,550.227,64.803L550.227,64.803z M531.922,81.565c-0.549-0.023-1.082-0.032-1.593-0.032
	c-3.094,0-5.709,0.766-7.883,2.311c-2.155,1.54-3.939,3.481-5.351,5.794c-1.422,2.323-2.452,4.817-3.098,7.485
	c-0.632,2.679-0.961,5.122-0.961,7.296c0,4.766,1.575,7.141,4.719,7.141c3.103,0,5.978-1.864,8.616-5.629
	c2.639-3.783,4.566-9.069,5.788-15.914l1.458-8.205C533.027,81.683,532.465,81.602,531.922,81.565L531.922,81.565z"/>
<path fill="#467BBD" d="M160.164,75.119c-0.023-0.069-0.051-0.135-0.06-0.195c-0.366-0.892-0.734-1.79-1.124-2.699
	c-0.762-0.953-1.621-1.693-2.536-2.262c-0.409-0.26-0.832-0.493-1.25-0.666c-0.283-0.138-0.548-0.249-0.818-0.342
	c-1.733-0.632-3.525-0.838-5.104-0.838c-4.093,0-8.752,1.394-12.811,3.782c-13.313,7.93-26.151,26.451-32.138,35.949l0.376-0.297
	l-2.555,4.044c10.488-0.325,34.28-1.149,47.082-9.864C164.075,90.526,161.464,78.769,160.164,75.119z"/>
<path fill="#467BBD" d="M27.395,92.904c14.544-8.647,29.491-31.113,34.536-39.649c-13.438,0.307-35.177,2.107-47.249,10.022
	C6.511,68.464,0.153,80.297,3.673,89.62c0.042,0.096,0.079,0.155,0.111,0.237c0.367,0.92,0.748,1.86,1.157,2.82
	c2.625,3.256,6.507,4.019,9.587,4.019C18.63,96.696,23.322,95.315,27.395,92.904z"/>
<path fill="#467BBD" d="M113.983,89.824c-10.953-3.711-22.84-7.215-32.966-10.826c-0.13-7.98-0.334-17.703-0.576-26.544
	c-0.014-0.425-0.014-0.836-0.037-1.253c-0.014-0.435-0.024-0.863-0.028-1.281c-0.223-7.615-0.469-14.355-0.697-18.397
	c-5.342,6.583-9.963,13.644-13.303,19.156c-0.265,0.434-0.525,0.855-0.771,1.276c-0.125,0.201-0.255,0.427-0.381,0.638
	c-0.004,0.02-0.13,0.232-0.358,0.622c-1.467,2.518-7.251,12.199-15.124,22.01c0.218,0.366,12.987,21.65,23.058,38.381
	c0.241,0.4,0.483,0.802,0.715,1.186c0.246,0.407,0.483,0.805,0.72,1.198c5.151,8.538,9.332,15.465,10.336,17.064l-34.633-10.933
	l-1.82-0.582l-1.752-0.557l-1.505-0.474c1.458-13.241,3.861-40.966,4.863-45.264c-6.108,7.621-13.475,15.326-21.037,19.833
	c-4.455,2.638-9.62,4.154-14.158,4.154c-2.801,0-5.295-0.559-7.394-1.627c-0.223-0.111-0.446-0.228-0.646-0.352
	c6.875,15.053,17.391,33.026,26.867,45.856c0.906,1.236,1.803,2.414,2.694,3.555c0.024,0.025,0.038,0.067,0.065,0.086
	c3.661,4.451,9.263,6.923,15.733,6.923c4.102,0,8.496-0.981,13.08-2.919c14.167-6.841,26.969-27.481,32.432-36.297
	c0.037-0.055,0.055-0.11,0.093-0.156c0.307-0.497,0.599-0.961,0.854-1.365c0.107-0.167,0.19-0.307,0.288-0.463l0.004,0.007
	c0.097-0.213,0.232-0.475,0.422-0.817c0.47-0.844,1.273-2.165,2.611-4.303c1.77-2.821,4.627-7.222,8.171-12.053
	C111.066,93.565,112.473,91.723,113.983,89.824z"/>
<path fill="#467BBD" d="M90.944,49.951c0.232,0.387,0.455,0.781,0.673,1.161c8.477,14.567,18.924,32.525,22.426,38.646
	c5.881-7.373,13.424-15.452,21.126-20.038c4.427-2.634,9.569-4.128,14.102-4.128c1.301,0,2.527,0.124,3.692,0.361
	c0.004,0,0.014,0,0.024,0.009c-0.019-0.009-0.019-0.027-0.038-0.041c-10.181-6.229-24.102-14.481-31.497-19.263
	c0.255-1.868,0.511-3.762,0.757-5.638c0.074-0.586,0.148-1.167,0.237-1.757c0.07-0.613,0.153-1.231,0.232-1.84
	c0.85-6.475,1.626-12.679,2.197-17.591c1.565,2.039,3.14,4.209,4.724,6.444c0.339,0.493,0.678,0.97,1.017,1.458
	c0.316,0.44,0.613,0.895,0.929,1.355c0.148,0.214,0.288,0.428,0.446,0.655c7.153,10.526,21.269,36.273,21.269,36.273l1.561,0.42
	c0.688,0.231,1.338,0.509,1.955,0.816c0.024,0.02,0.056,0.02,0.07,0.041c-2.731-5.93-6.057-12.349-9.732-18.778
	c-4.617-8.14-9.759-16.314-14.887-23.622c-0.474-0.684-0.953-1.357-1.436-2.022c-1.105-1.539-2.197-3.035-3.298-4.475
	c-0.645-0.856-1.291-1.691-1.927-2.5c-0.07-0.097-0.149-0.166-0.223-0.242v-0.02c-3.451-2.759-8.315-4.309-13.782-4.309
	c-4.441,0-8.988,1.04-12.467,2.844c-6.721,3.406-13.327,9.892-19.105,16.967c1.222,2.093,5.286,9.09,10.261,17.637
	C90.489,49.162,90.716,49.564,90.944,49.951z"/>
<path fill="#444345" d="M558.988,59.627c-2.439,0-4.251-1.854-4.251-4.265c0-2.732,1.835-4.404,4.78-4.404
	c2.42,0,4.13,1.772,4.13,4.173C563.647,57.876,561.891,59.627,558.988,59.627z M559.257,51.926c-1.826,0-3.321,1.218-3.321,3.28
	c0,2.118,1.301,3.428,3.339,3.428c1.733,0,3.201-1.29,3.201-3.346C562.476,53.259,561.129,51.926,559.257,51.926z M559.996,57.472
	l-1.124-1.671v1.006c0,0.047,0.005,0.163,0.084,0.664h-1.375v-3.781l-0.093-0.829h1.584c0.925,0,1.812,0.504,1.812,1.502
	c0,0.488-0.358,1.05-0.901,1.301l1.556,1.807H559.996z M558.914,55.186c0.4,0,0.826-0.26,0.826-0.822
	c0-0.548-0.427-0.712-0.826-0.712h-0.042v1.534H558.914z"/>
<path fill="#447BBE" d="M500.893,56.46c-0.4,2.067-0.975,4.185-1.756,6.372c-1.152,0.195-2.364,0.321-3.614,0.383
	c-1.254,0.068-2.393,0.105-3.423,0.105c-0.975,0-2.095-0.038-3.386-0.105c-1.296-0.062-2.452-0.187-3.488-0.383
	c-0.056-2.248,0.083-4.396,0.441-6.429c0.353-2.03,0.925-4.171,1.696-6.421c1.157-0.268,2.383-0.439,3.669-0.528
	c1.282-0.107,2.443-0.147,3.484-0.147c1.022,0,2.169,0.04,3.419,0.147c1.263,0.088,2.438,0.26,3.53,0.528
	C501.464,52.233,501.279,54.395,500.893,56.46L500.893,56.46z"/>
</svg>
