<?xml version="1.0" encoding="utf-8"?>
<!-- Generator: Adobe Illustrator 16.0.0, SVG Export Plug-In . SVG Version: 6.00 Build 0)  -->
<!DOCTYPE svg PUBLIC "-//W3C//DTD SVG 1.1//EN" "http://www.w3.org/Graphics/SVG/1.1/DTD/svg11.dtd">
<svg version="1.1" id="Layer_1" xmlns="http://www.w3.org/2000/svg" xmlns:xlink="http://www.w3.org/1999/xlink" x="0px" y="0px"
	 width="565px" height="165px" viewBox="0 0 565 165" enable-background="new 0 0 565 165" xml:space="preserve">
<g>
	<g>
		<polygon fill="#00188F" points="37.226,81.726 83.449,81.726 83.449,40.896 37.226,47.354 		"/>
		<polygon fill="#00188F" points="35.842,81.726 35.842,47.547 0.448,52.492 0.448,81.726 		"/>
		<polygon fill="#00188F" points="37.226,83.108 37.226,117.444 83.449,123.896 83.449,83.108 		"/>
		<polygon fill="#00188F" points="35.842,83.108 0.448,83.108 0.448,112.312 35.842,117.251 		"/>
	</g>
	<g>
		<path fill="#00188F" d="M184.249,60.052c0,1.064-0.372,1.95-1.111,2.656c-0.742,0.706-1.621,1.059-2.639,1.059
			c-1.042,0-1.922-0.341-2.638-1.024c-0.718-0.682-1.077-1.58-1.077-2.69c0-0.995,0.353-1.858,1.06-2.586
			c0.706-0.729,1.59-1.094,2.656-1.094c1.063,0,1.955,0.359,2.674,1.076C183.889,58.166,184.249,59.033,184.249,60.052z"/>
	</g>
	<g>
		<path fill="#00188F" d="M173.026,57.471l-14.077,49.843h-6.847l-11.123-39.485h-0.139l-11.157,39.485h-6.778l-14.563-49.843h6.395
			l11.54,41.605h0.14l12.026-41.605h5.63l11.4,41.743h0.14l11.089-41.743H173.026z"/>
		<path fill="#00188F" d="M183.452,107.313h-5.701V71.721h5.701V107.313z"/>
		<path fill="#00188F" d="M221.554,107.313h-5.7V87.016c0-7.531-2.758-11.297-8.273-11.297c-2.805,0-5.15,1.061-7.039,3.181
			c-1.889,2.12-2.833,4.827-2.833,8.117v20.298h-5.7V71.721h5.7v5.909h0.14c2.665-4.518,6.557-6.778,11.679-6.778
			c3.915,0,6.899,1.275,8.95,3.824c2.05,2.55,3.076,6.164,3.076,10.845V107.313z"/>
		<path fill="#00188F" d="M260.837,107.313h-5.701v-6.048h-0.138c-2.643,4.611-6.721,6.917-12.235,6.917
			c-4.496,0-8.075-1.616-10.74-4.849c-2.665-3.232-3.998-7.548-3.998-12.948c0-5.885,1.477-10.611,4.433-14.18
			c2.954-3.568,6.91-5.354,11.869-5.354c4.866,0,8.423,1.925,10.671,5.77h0.138V54.621h5.701V107.313z M255.136,91.221v-5.249
			c0-2.941-0.979-5.387-2.937-7.334c-1.958-1.946-4.339-2.919-7.143-2.919c-3.429,0-6.152,1.27-8.168,3.806
			c-2.015,2.538-3.023,6.054-3.023,10.549c0,4.079,0.95,7.306,2.851,9.68c1.9,2.376,4.461,3.563,7.681,3.563
			c3.128,0,5.7-1.135,7.716-3.406C254.128,97.639,255.136,94.743,255.136,91.221z"/>
		<path fill="#00188F" d="M303.144,89.378c0,5.654-1.605,10.202-4.815,13.644c-3.208,3.44-7.513,5.161-12.91,5.161
			c-5.262,0-9.462-1.674-12.601-5.023c-3.141-3.347-4.71-7.756-4.71-13.225c0-5.885,1.611-10.537,4.831-13.955
			c3.22-3.417,7.658-5.127,13.312-5.127c5.283,0,9.419,1.651,12.408,4.953C301.649,79.108,303.144,83.632,303.144,89.378z
			 M297.303,89.587c0-4.472-0.988-7.901-2.97-10.289c-1.981-2.386-4.814-3.58-8.499-3.58c-3.661,0-6.558,1.223-8.69,3.667
			c-2.132,2.445-3.197,5.892-3.197,10.341c0,4.263,1.071,7.594,3.215,9.992c2.143,2.399,5.034,3.598,8.672,3.598
			c3.708,0,6.546-1.182,8.517-3.546C296.318,97.407,297.303,94.013,297.303,89.587z"/>
		<path fill="#00188F" d="M354.895,71.721l-10.67,35.592h-5.909l-7.958-27.632h-0.14l-8.62,27.632h-5.7l-10.741-35.592h5.979
			l7.856,28.71h0.277l8.794-28.71h5.214l7.926,28.71h0.277l7.785-28.71H354.895z"/>
		<path fill="#00188F" d="M379.049,97.79c0,3.081-1.186,5.584-3.561,7.508c-2.376,1.923-5.532,2.885-9.472,2.885
			c-3.359,0-6.304-0.719-8.828-2.155V99.91c2.803,2.271,5.885,3.406,9.244,3.406c4.519,0,6.778-1.656,6.778-4.97
			c0-1.345-0.44-2.439-1.321-3.286c-0.88-0.846-2.885-1.985-6.013-3.423c-3.151-1.344-5.376-2.786-6.674-4.327
			c-1.297-1.542-1.945-3.585-1.945-6.135c0-2.941,1.182-5.398,3.545-7.369c2.363-1.969,5.364-2.955,9.002-2.955
			c2.804,0,5.341,0.556,7.612,1.668v5.736c-2.317-1.691-5.005-2.538-8.063-2.538c-1.877,0-3.39,0.464-4.536,1.391
			c-1.147,0.927-1.721,2.12-1.721,3.58c0,1.576,0.44,2.787,1.322,3.633c0.879,0.846,2.697,1.847,5.454,3.006
			c3.384,1.437,5.76,2.942,7.127,4.518C378.366,93.422,379.049,95.403,379.049,97.79z"/>
		<path fill="#00188F" d="M439.17,107.313h-6.465l-5.249-13.938h-21.167l-4.971,13.938h-6.466L413.9,57.471h6.047L439.17,107.313z
			 M425.51,88.092l-8.62-23.321h-0.14l-8.516,23.321H425.51z"/>
		<path fill="#00188F" d="M470.458,73.355l-21.1,29.127h20.855v4.831h-29.231v-1.772l21.062-28.988h-19.081v-4.832h27.494V73.355z"
			/>
		<path fill="#00188F" d="M504.621,107.313h-5.7v-5.63h-0.139c-2.362,4.332-6.014,6.499-10.949,6.499
			c-8.504,0-12.755-5.063-12.755-15.189V71.721h5.7v20.368c0,7.485,2.873,11.228,8.62,11.228c2.826,0,5.121-1.025,6.882-3.076
			s2.641-4.722,2.641-8.011V71.721h5.7V107.313z"/>
		<path fill="#00188F" d="M532.453,77.491c-1.021-0.765-2.47-1.147-4.347-1.147c-2.524,0-4.576,1.188-6.15,3.562
			c-1.576,2.376-2.364,5.463-2.364,9.263v18.144h-5.7V71.721h5.7v7.334h0.139c0.789-2.456,2.004-4.396,3.649-5.822
			c1.646-1.425,3.534-2.138,5.665-2.138c1.483,0,2.619,0.162,3.408,0.486V77.491z"/>
		<path fill="#00188F" d="M564.376,90.942h-25.13c0.092,4.009,1.152,7.073,3.181,9.194c2.026,2.119,4.837,3.18,8.428,3.18
			c4.032,0,7.704-1.297,11.019-3.893v5.317c-3.106,2.295-7.23,3.441-12.374,3.441c-5.074,0-9.036-1.64-11.886-4.918
			c-2.851-3.279-4.275-7.815-4.275-13.608c0-3.521,0.712-6.737,2.137-9.645c1.425-2.908,3.389-5.162,5.892-6.76
			c2.502-1.599,5.283-2.399,8.343-2.399c4.609,0,8.207,1.501,10.791,4.501c2.584,3.002,3.876,7.201,3.876,12.6V90.942z
			 M558.537,86.112c-0.047-3.291-0.84-5.846-2.381-7.665c-1.543-1.819-3.714-2.729-6.518-2.729c-2.643,0-4.9,0.951-6.778,2.851
			c-1.876,1.9-3.058,4.414-3.546,7.543H558.537z"/>
	</g>
</g>
</svg>
